<svg xmlns="http://www.w3.org/2000/svg" viewBox="0 0 543.74 108.91"><defs><style>.cls-1{fill:#fff;}.cls-2{fill:#f49b11;}</style></defs><g id="Layer_2" data-name="Layer 2"><g id="Layer_1-2" data-name="Layer 1"><path class="cls-1" d="M443.32.23H372.81a1.43,1.43,0,0,0-1.43,1.43V107.48a1.43,1.43,0,0,0,1.43,1.43h29a1.43,1.43,0,0,0,1.42-1.39v-33a1.39,1.39,0,0,1,1.39-1.39h37.73c19.87,0,36.68-15.55,37.28-35.41A36.37,36.37,0,0,0,443.32.23Zm4.47,36.43A8.78,8.78,0,0,1,439,45.43H404.66A1.39,1.39,0,0,1,403.27,44V29.12a1.39,1.39,0,0,1,1.39-1.39h34.21a8.92,8.92,0,0,1,8.92,8.93Z"/><path class="cls-1" d="M230.81,108.69a1.43,1.43,0,0,0,1.43-1.43V82.62a1.43,1.43,0,0,0-1.43-1.43H156.59a.89.89,0,0,1-.89-.89v-12a.89.89,0,0,1,.89-.89h50.14a1.48,1.48,0,0,0,1.48-1.48V43.41a1.66,1.66,0,0,0-1.66-1.67h-50a.89.89,0,0,1-.89-.89V28.4a.89.89,0,0,1,.89-.89h74.22a1.43,1.43,0,0,0,1.43-1.43V1.44A1.43,1.43,0,0,0,230.81,0H125.36a1.43,1.43,0,0,0-1.43,1.43V107.26a1.43,1.43,0,0,0,1.43,1.43Z"/><path class="cls-1" d="M496.08,24.19c0-.56.23-.8.76-.8h21c3.56,0,5.37-1.62,5.37-4.76,0-3-2-4.84-5.37-4.84h-21c-.53,0-.76-.25-.76-.81V1c0-.57.23-.81.76-.81h35.33c.53,0,.75.24.75.81V13c0,.56-.22.81-.75.81h-2.65v.08c2.88,2.09,4.31,5.48,4.31,10.08,0,8.64-5.29,13-13.77,13H496.84c-.53,0-.76-.24-.76-.8Z"/><path class="cls-1" d="M506,43.72a24.17,24.17,0,0,1,8.48-1.29A26.71,26.71,0,0,1,523,43.64c6.89,2.5,10.82,8.8,10.82,17.59,0,9.28-3.78,15.49-10.66,17.75-2.42.89-6.28,1.29-11.5,1.29-.53,0-.76-.32-.76-.89V56.07c0-.32-.15-.49-.45-.49a10,10,0,0,0-1.52.32c-2.65.89-4,3.48-4,7.59a14.15,14.15,0,0,0,2.95,8.8.77.77,0,0,1,0,1.2l-5.52,5.74c-.38.48-.76.48-1.13-.09-4-4.43-6.06-10.16-6.06-17.1C495.17,52.6,499.11,46.06,506,43.72Zm12.64,23q0,.48.45.48a5.78,5.78,0,0,0,2.27-.32c2.19-.73,3.33-2.58,3.33-5.49s-1.14-4.76-3.33-5.49a8.1,8.1,0,0,0-2.27-.32c-.3,0-.45.17-.45.49Z"/><path class="cls-1" d="M495.63,103.56c0-10.33,3.93-14.28,13.92-14.28h13.84c.31,0,.46-.16.46-.48V86.54c0-.57.22-.81.75-.81h7.57c.53,0,.75.24.75.81V88.8a.42.42,0,0,0,.46.48H543c.53,0,.75.24.75.81v11.78c0,.56-.22.8-.75.8H532.92v5.41c0,.57-.22.81-.75.81H524.6c-.53,0-.75-.24-.75-.81v-5.41H510.08c-2.95,0-3.86,1-3.86,3.64v1.77c0,.57-.23.81-.76.81h-9.08c-.53,0-.75-.24-.75-.81Z"/><path class="cls-1" d="M479.68,108c0,.62-.28.89-.94.89H465.65c-.66,0-.94-.27-.94-.89V95.82c0-.62.28-.88.94-.88h13.09c.66,0,.94.26.94.88Z"/><path class="cls-2" d="M37.6.88V26a.87.87,0,0,0,.87.87H60.75a.45.45,0,0,1,.32.78L28.58,60.14a.45.45,0,0,1-.77-.32V38.67a.87.87,0,0,0-.88-.88H.88a.87.87,0,0,0-.88.88V108a.87.87,0,0,0,.88.87H70.25a.88.88,0,0,0,.88-.87V82.92a.88.88,0,0,0-.88-.88H47.77a.45.45,0,0,1-.32-.77L80.14,48.58a.45.45,0,0,1,.77.32V70.25a.89.89,0,0,0,.88.88h26.06a.88.88,0,0,0,.87-.88V.88a.87.87,0,0,0-.87-.88H38.47A.87.87,0,0,0,37.6.88Z"/><path class="cls-1" d="M355.57,37.49A36.38,36.38,0,0,0,319.21,0H248.7a1.43,1.43,0,0,0-1.43,1.43V107.26a1.43,1.43,0,0,0,1.43,1.43h29a1.43,1.43,0,0,0,1.42-1.39v-33a1.4,1.4,0,0,1,1.4-1.4h9.15A2.61,2.61,0,0,1,291.82,74l24.24,33.22a3.15,3.15,0,0,0,2.52,1.28h35a1,1,0,0,0,.78-1.53L328.92,72.05a.49.49,0,0,1,.26-.77C344,66.83,355.08,53.58,355.57,37.49Zm-76.41-8.6a1.39,1.39,0,0,1,1.39-1.39h34.21a8.93,8.93,0,0,1,8.93,8.93h0a8.78,8.78,0,0,1-8.78,8.78H280.55a1.39,1.39,0,0,1-1.39-1.39Z"/></g></g></svg>
