<svg xmlns="http://www.w3.org/2000/svg" width="38.000000pt" height="38.000000pt" viewBox="0 -50 233.84 334.48"><defs><style>.cls-1{fill:#fff;}.cls-2{fill:#f49b11;}</style></defs><g id="Layer_2" data-name="Layer 2"><g id="Layer_1-2" data-name="Layer 1"><path class="cls-1" d="M197,124H125.47a1.45,1.45,0,0,0-1.45,1.45v107.3a1.45,1.45,0,0,0,1.45,1.46h29.44a1.45,1.45,0,0,0,1.44-1.42V199.36a1.42,1.42,0,0,1,1.42-1.41H196c20.15,0,37.2-15.76,37.8-35.9A36.87,36.87,0,0,0,197,124ZM201.5,161a8.91,8.91,0,0,1-8.9,8.9H157.76a1.41,1.41,0,0,1-1.41-1.41V153.34a1.41,1.41,0,0,1,1.41-1.41h34.69a9,9,0,0,1,9.05,9Z"/><path class="cls-1" d="M107.81,110.2A2.21,2.21,0,0,0,110,108V84.54a2.21,2.21,0,0,0-2.22-2.22H34.1a1.67,1.67,0,0,1-1.67-1.67V70a1.67,1.67,0,0,1,1.67-1.67H83.4a2.27,2.27,0,0,0,2.27-2.27V44.78a2.46,2.46,0,0,0-2.45-2.46H34.1a1.67,1.67,0,0,1-1.67-1.67V29.55a1.67,1.67,0,0,1,1.67-1.67h73.71A2.21,2.21,0,0,0,110,25.67V2.22A2.21,2.21,0,0,0,107.81,0H2.43A2.21,2.21,0,0,0,.21,2.22V108a2.21,2.21,0,0,0,2.22,2.22Z"/><path class="cls-2" d="M38.12,125.68v24.91A1.45,1.45,0,0,0,39.57,152h19a1.37,1.37,0,0,1,1,2.36L30.66,183.35a1.44,1.44,0,0,1-2.46-1V164a1.65,1.65,0,0,0-1.64-1.64H1.64A1.64,1.64,0,0,0,0,164v68.84a1.63,1.63,0,0,0,1.64,1.64H70.48a1.63,1.63,0,0,0,1.64-1.64V208a1.63,1.63,0,0,0-1.64-1.64H51.65a1.44,1.44,0,0,1-1-2.46l29-29a1.44,1.44,0,0,1,2.46,1v18.52a1.63,1.63,0,0,0,1.64,1.64H108.6a1.63,1.63,0,0,0,1.64-1.64V125.68A1.64,1.64,0,0,0,108.6,124H39.76A1.65,1.65,0,0,0,38.12,125.68Z"/><path class="cls-1" d="M159.21,227.14c0-.31.14-.44.47-.44h6.58c.33,0,.47.13.47.44v6.13c0,.31-.14.44-.47.44h-6.58c-.33,0-.47-.13-.47-.44Z"/><path class="cls-1" d="M184,233.71c-.33,0-.47-.13-.47-.44V220.93c0-2.09-.95-3.15-2.79-3.15s-2.84,1.2-2.84,3.15v12.34c0,.31-.15.44-.48.44h-7c-.33,0-.47-.13-.47-.44V212.54c0-.31.14-.44.47-.44h7c.33,0,.48.13.48.44v1.55h0c1.23-1.68,3.22-2.53,5.92-2.53,5.07,0,7.62,3.11,7.62,8.08v13.63c0,.31-.14.44-.47.44Z"/><path class="cls-1" d="M195.15,227.9a14.08,14.08,0,0,1-.76-5,15.4,15.4,0,0,1,.72-5c1.46-4,5.15-6.35,10.31-6.35,5.45,0,9.09,2.22,10.42,6.26a21.44,21.44,0,0,1,.76,6.75c0,.31-.19.44-.53.44H202.39a.25.25,0,0,0-.28.27,5.83,5.83,0,0,0,.19.89c.52,1.55,2,2.35,4.45,2.35a8.28,8.28,0,0,0,5.16-1.73.46.46,0,0,1,.71,0L216,230c.28.22.28.44,0,.66a14.39,14.39,0,0,1-10,3.56C200.36,234.25,196.52,231.94,195.15,227.9Zm13.49-7.41c.19,0,.29-.09.29-.27a3.37,3.37,0,0,0-.19-1.33c-.43-1.29-1.52-1.95-3.22-1.95s-2.79.66-3.22,1.95a4.79,4.79,0,0,0-.19,1.33.25.25,0,0,0,.28.27Z"/><path class="cls-1" d="M229.37,234c-6.06,0-8.38-2.31-8.38-8.17v-8.12c0-.18-.09-.27-.28-.27h-1.33c-.33,0-.47-.13-.47-.44v-4.44c0-.31.14-.44.47-.44h1.33c.19,0,.28-.09.28-.27v-5.64c0-.31.15-.44.48-.44h6.91c.33,0,.47.13.47.44v5.91H232c.33,0,.48.13.48.44V217c0,.31-.15.44-.48.44h-3.17v8.08c0,1.73.57,2.26,2.13,2.26h1c.33,0,.48.14.48.45v5.33c0,.31-.15.44-.48.44Z"/><path class="cls-1" d="M233.82,38A36.87,36.87,0,0,0,197,0H125.47A1.45,1.45,0,0,0,124,1.45v107.3a1.45,1.45,0,0,0,1.45,1.45h29.44a1.44,1.44,0,0,0,1.44-1.41V75.32a1.42,1.42,0,0,1,1.42-1.41h9.28A2.64,2.64,0,0,1,169.19,75l24.57,33.68a3.2,3.2,0,0,0,2.56,1.3h35.5a1,1,0,0,0,.79-1.55L206.8,73.05a.5.5,0,0,1,.26-.78C222,67.76,233.33,54.32,233.82,38Zm-77.47-8.72a1.41,1.41,0,0,1,1.41-1.4h34.69a9,9,0,0,1,9.05,9h0a8.9,8.9,0,0,1-8.9,8.9H157.76a1.41,1.41,0,0,1-1.41-1.4Z"/></g></g></svg>
