<?xml version="1.0" encoding="UTF-8" standalone="no"?>
<svg
   id="Layer_1"
   data-name="Layer 1"
   width="40.000000pt" 
   height="40.000000pt"
   viewBox="0 0 500 500"
   version="1.1"
   sodipodi:docname="Logo - Arrow.svg"
   inkscape:export-filename="Logo - Arrow.png"
   inkscape:export-xdpi="400.12799"
   inkscape:export-ydpi="400.12799"
   inkscape:version="1.2.2 (732a01da63, 2022-12-09)"
   xmlns:inkscape="http://www.inkscape.org/namespaces/inkscape"
   xmlns:sodipodi="http://sodipodi.sourceforge.net/DTD/sodipodi-0.dtd"
   xmlns="http://www.w3.org/2000/svg"
   xmlns:svg="http://www.w3.org/2000/svg">
  <sodipodi:namedview
     id="namedview9"
     pagecolor="#ffffff"
     bordercolor="#000000"
     borderopacity="0.25"
     inkscape:showpageshadow="2"
     inkscape:pageopacity="0.0"
     inkscape:pagecheckerboard="0"
     inkscape:deskcolor="#d1d1d1"
     showgrid="false"
     inkscape:zoom="1.674"
     inkscape:cx="209.08005"
     inkscape:cy="249.70131"
     inkscape:window-width="1920"
     inkscape:window-height="1017"
     inkscape:window-x="-8"
     inkscape:window-y="-8"
     inkscape:window-maximized="1"
     inkscape:current-layer="Layer_1" />
  <defs
     id="defs4">
    <style
       id="style2">
      .cls-1 {
        fill: #f19921;
        stroke-width: 0px;
      }
    </style>
  </defs>
  <path
     class="cls-1"
     d="m181.61,30.83v102.74c0,1.96,1.31,3.27,3.27,3.27h91.62c1.96,0,2.62,1.96,1.31,3.27l-132.85,133.5c-1.31.65-3.27,0-3.27-1.31v-87.04c0-1.96-1.31-3.27-3.27-3.27H31.09c-1.96,0-3.27,1.31-3.27,3.27v284.02c0,1.96,1.31,3.27,3.27,3.27h284.02c1.96,0,3.27-1.31,3.27-3.27v-102.74c0-1.96-1.31-3.27-3.27-3.27h-91.62c-1.96,0-2.62-1.96-1.31-3.27l133.5-133.5c1.31-1.31,3.27-.65,3.27,1.31v87.69c0,1.96,1.31,3.27,3.27,3.27h106.67c1.96,0,3.27-1.31,3.27-3.27V30.83c0-1.96-1.31-3.27-3.27-3.27H185.54c-1.96-.65-3.93,1.31-3.93,3.27Z"
     id="path6" />
</svg>
