<?xml version="1.0" encoding="UTF-8" standalone="no"?>
<svg
   id="Layer_1"
   data-name="Layer 1"
   viewBox="0 0 1200 497"
   version="1.1"
   sodipodi:docname="ERP-net-Logo-01-Color.svg"
   inkscape:export-filename="ERP-net-Logo-01-Color.png"
   inkscape:export-xdpi="400"
   inkscape:export-ydpi="400"
   inkscape:version="1.2.2 (732a01da63, 2022-12-09)"
   xmlns:inkscape="http://www.inkscape.org/namespaces/inkscape"
   xmlns:sodipodi="http://sodipodi.sourceforge.net/DTD/sodipodi-0.dtd"
   xmlns="http://www.w3.org/2000/svg"
   xmlns:svg="http://www.w3.org/2000/svg">
  <sodipodi:namedview
     id="namedview2591"
     pagecolor="#ffffff"
     bordercolor="#000000"
     borderopacity="0.25"
     inkscape:showpageshadow="2"
     inkscape:pageopacity="0.0"
     inkscape:pagecheckerboard="0"
     inkscape:deskcolor="#d1d1d1"
     showgrid="false"
     inkscape:zoom="0.96166667"
     inkscape:cx="529.28943"
     inkscape:cy="249.56672"
     inkscape:window-width="1920"
     inkscape:window-height="1017"
     inkscape:window-x="-8"
     inkscape:window-y="-8"
     inkscape:window-maximized="1"
     inkscape:current-layer="Layer_1" />
  <defs
     id="defs2512">
    <style
       id="style2510">
      .cls-1 {
        fill: #f19921;
      }

      .cls-1, .cls-2 {
        stroke-width: 0px;
      }

      .cls-2 {
        fill: #0b3753;
      }
    </style>
  </defs>
  <g
     id="g2564">
    <g
       id="g2560">
      <path
         class="cls-2"
         d="m35.35,405.82h8.47l9.46,16.27,9.22,15.94h-3.32l9.3-15.94,9.46-16.27h8.22l-21.91,37.35h-6.97l-21.92-37.35Zm21.83,34.28h7.14v23.82h-7.14v-23.82Z"
         id="path2514" />
      <path
         class="cls-2"
         d="m95.66,462.09c-3.46-1.94-6.17-4.62-8.14-8.05-1.96-3.43-2.95-7.33-2.95-11.7s.98-8.26,2.95-11.66c1.96-3.4,4.68-6.07,8.14-8.01,3.46-1.94,7.37-2.91,11.74-2.91s8.29.97,11.75,2.91c3.46,1.94,6.17,4.61,8.13,8.01,1.96,3.4,2.95,7.29,2.95,11.66s-.99,8.27-2.95,11.7c-1.96,3.43-4.68,6.12-8.13,8.05-3.46,1.94-7.38,2.91-11.75,2.91s-8.29-.97-11.74-2.91Zm20-5.81c2.41-1.33,4.27-3.21,5.6-5.65s1.99-5.2,1.99-8.3-.66-5.78-1.99-8.22-3.19-4.33-5.6-5.69c-2.41-1.36-5.16-2.03-8.26-2.03s-5.85.68-8.26,2.03c-2.41,1.36-4.28,3.25-5.61,5.69-1.32,2.44-1.99,5.18-1.99,8.22s.66,5.87,1.99,8.3c1.33,2.44,3.2,4.32,5.61,5.65,2.4,1.33,5.16,1.99,8.26,1.99s5.85-.66,8.26-1.99Z"
         id="path2516" />
      <path
         class="cls-2"
         d="m149.78,462.51c-2.68-1.66-4.74-4-6.18-7.01-1.44-3.02-2.16-6.57-2.16-10.67v-23.99h6.89v23.33c0,4.37,1.08,7.82,3.24,10.33,2.16,2.52,5.09,3.78,8.8,3.78,2.66,0,5.02-.65,7.1-1.95,2.07-1.3,3.68-3.14,4.81-5.52,1.13-2.38,1.7-5.12,1.7-8.22v-21.75h6.97v43.08h-5.73l-1-8.63,1.41.58c-1.77,3.04-4.07,5.33-6.89,6.85-2.82,1.52-5.92,2.28-9.3,2.28-3.77,0-6.99-.83-9.67-2.49Z"
         id="path2518" />
      <path
         class="cls-2"
         d="m196.39,420.84h5.73l1.16,10.38h-1.74c1.55-3.65,3.56-6.29,6.02-7.93,2.46-1.63,5.82-2.45,10.08-2.45h3.9v6.47h-4.24c-4.26,0-7.65,1.32-10.17,3.94-2.52,2.63-3.77,6.85-3.77,12.66v20.01h-6.97v-43.08Z"
         id="path2520" />
      <path
         class="cls-2"
         d="m252.42,405.82h22.5c3.65,0,6.87.64,9.67,1.91,2.79,1.27,4.95,3.07,6.47,5.4,1.52,2.32,2.28,5.04,2.28,8.13,0,3.32-.87,6.17-2.62,8.55-1.74,2.38-4.16,4.04-7.26,4.98v-1.74c2.43.61,4.51,1.59,6.22,2.95s3.03,3.02,3.94,4.98,1.37,4.19,1.37,6.68c0,3.32-.78,6.21-2.33,8.67-1.55,2.46-3.75,4.35-6.6,5.65-2.85,1.3-6.21,1.95-10.08,1.95h-23.57v-58.11Zm3.82,51.3h19.59c3.71,0,6.58-.84,8.63-2.53s3.07-4.08,3.07-7.18-1.02-5.58-3.07-7.26c-2.05-1.69-4.95-2.53-8.71-2.53h-17.18v-6.64h16.19c3.54,0,6.28-.79,8.22-2.37,1.94-1.58,2.91-3.83,2.91-6.76s-.97-5.2-2.91-6.81c-1.94-1.6-4.68-2.41-8.22-2.41h-18.51l3.49-3.4v51.21l-3.49-3.32Z"
         id="path2522" />
      <path
         class="cls-2"
         d="m314.88,462.51c-2.68-1.66-4.74-4-6.18-7.01-1.44-3.02-2.16-6.57-2.16-10.67v-23.99h6.89v23.33c0,4.37,1.08,7.82,3.24,10.33,2.16,2.52,5.09,3.78,8.8,3.78,2.66,0,5.02-.65,7.1-1.95,2.07-1.3,3.68-3.14,4.81-5.52,1.13-2.38,1.7-5.12,1.7-8.22v-21.75h6.97v43.08h-5.73l-1-8.63,1.41.58c-1.77,3.04-4.07,5.33-6.89,6.85-2.82,1.52-5.92,2.28-9.3,2.28-3.77,0-6.99-.83-9.67-2.49Z"
         id="path2524" />
      <path
         class="cls-2"
         d="m367.26,463.22c-2.85-1.19-5.05-2.89-6.6-5.11s-2.35-4.76-2.41-7.64h6.89c.11,2.6,1.22,4.63,3.32,6.1s5.01,2.2,8.72,2.2c3.26,0,5.84-.57,7.72-1.7,1.88-1.13,2.82-2.67,2.82-4.61s-.99-3.53-2.95-4.77c-1.96-1.24-5.05-2.2-9.25-2.86-5.54-.88-9.64-2.38-12.33-4.48-2.68-2.1-4.02-4.87-4.02-8.3,0-3.82,1.48-6.82,4.44-9.01,2.96-2.19,7.04-3.28,12.25-3.28s9.55,1.19,12.7,3.57c3.15,2.38,4.9,5.67,5.23,9.88h-6.89c-.28-2.32-1.36-4.12-3.24-5.4-1.88-1.27-4.46-1.91-7.72-1.91-3.1,0-5.52.55-7.26,1.66s-2.62,2.6-2.62,4.48.88,3.25,2.66,4.28c1.77,1.02,4.87,2.01,9.3,2.95,5.48,1.05,9.61,2.71,12.41,4.98,2.79,2.27,4.19,5.06,4.19,8.39,0,3.71-1.59,6.69-4.77,8.96-3.18,2.27-7.43,3.4-12.74,3.4-3.71,0-6.99-.59-9.83-1.78Z"
         id="path2526" />
      <path
         class="cls-2"
         d="m407.35,413.04c-.86-.44-1.52-1.09-1.99-1.95-.47-.86-.71-1.78-.71-2.78,0-1.6.51-2.92,1.54-3.94s2.4-1.54,4.11-1.54c1.11,0,2.09.23,2.95.7.86.47,1.51,1.12,1.95,1.95.44.83.66,1.77.66,2.82,0,1.55-.51,2.84-1.54,3.86-1.02,1.03-2.37,1.54-4.02,1.54-1.11,0-2.09-.22-2.95-.66Zm-.54,7.8h6.97v43.08h-6.97v-43.08Z"
         id="path2528" />
      <path
         class="cls-2"
         d="m429.22,420.84h5.73l.99,8.55-1.41-.5c1.77-3.04,4.09-5.32,6.97-6.85,2.88-1.52,6-2.28,9.38-2.28,3.76,0,7.01.83,9.75,2.49,2.74,1.66,4.84,4,6.31,7.01,1.46,3.02,2.2,6.57,2.2,10.67v23.99h-6.97v-23.33c0-4.32-1.1-7.76-3.28-10.33-2.19-2.57-5.16-3.86-8.92-3.86-2.66,0-5.02.66-7.1,1.99s-3.71,3.18-4.9,5.56c-1.19,2.38-1.79,5.12-1.79,8.22v21.75h-6.97v-43.08Z"
         id="path2530" />
      <path
         class="cls-2"
         d="m490.93,462.14c-3.35-1.91-5.95-4.58-7.8-8.01s-2.78-7.36-2.78-11.79.94-8.26,2.82-11.66c1.88-3.4,4.51-6.07,7.88-8.01,3.38-1.94,7.19-2.91,11.46-2.91,4.54,0,8.51,1.07,11.91,3.19,3.4,2.13,5.99,5.12,7.76,8.96,1.77,3.85,2.6,8.26,2.49,13.24h-40.26v-6.14h36.36l-2.91,1.24c-.33-2.88-1.19-5.37-2.57-7.47-1.38-2.1-3.17-3.71-5.35-4.81-2.19-1.11-4.66-1.66-7.43-1.66-2.93,0-5.56.66-7.88,1.99s-4.14,3.18-5.44,5.56c-1.3,2.38-1.95,5.12-1.95,8.22v.25c0,3.21.65,6.03,1.95,8.47,1.3,2.44,3.1,4.32,5.4,5.65,2.3,1.33,4.94,1.99,7.93,1.99s5.47-.61,7.76-1.83c2.3-1.22,4.11-2.96,5.44-5.23h7.97c-1.77,4.26-4.55,7.6-8.34,10-3.79,2.41-8.1,3.61-12.91,3.61-4.32,0-8.15-.95-11.5-2.86Z"
         id="path2532" />
      <path
         class="cls-2"
         d="m542.32,463.22c-2.85-1.19-5.05-2.89-6.6-5.11-1.55-2.21-2.35-4.76-2.41-7.64h6.89c.11,2.6,1.22,4.63,3.32,6.1s5.01,2.2,8.72,2.2c3.26,0,5.84-.57,7.72-1.7,1.88-1.13,2.82-2.67,2.82-4.61s-.99-3.53-2.95-4.77c-1.96-1.24-5.05-2.2-9.25-2.86-5.54-.88-9.64-2.38-12.33-4.48-2.68-2.1-4.02-4.87-4.02-8.3,0-3.82,1.48-6.82,4.44-9.01,2.96-2.19,7.04-3.28,12.25-3.28s9.55,1.19,12.7,3.57c3.15,2.38,4.9,5.67,5.23,9.88h-6.89c-.28-2.32-1.36-4.12-3.24-5.4-1.88-1.27-4.46-1.91-7.72-1.91-3.1,0-5.52.55-7.26,1.66s-2.62,2.6-2.62,4.48.88,3.25,2.66,4.28c1.77,1.02,4.87,2.01,9.3,2.95,5.48,1.05,9.61,2.71,12.41,4.98,2.79,2.27,4.19,5.06,4.19,8.39,0,3.71-1.59,6.69-4.77,8.96-3.18,2.27-7.43,3.4-12.74,3.4-3.71,0-6.99-.59-9.83-1.78Z"
         id="path2534" />
      <path
         class="cls-2"
         d="m587.64,463.22c-2.85-1.19-5.05-2.89-6.6-5.11-1.55-2.21-2.35-4.76-2.41-7.64h6.89c.11,2.6,1.22,4.63,3.32,6.1s5.01,2.2,8.72,2.2c3.26,0,5.84-.57,7.72-1.7,1.88-1.13,2.82-2.67,2.82-4.61s-.99-3.53-2.95-4.77c-1.96-1.24-5.05-2.2-9.25-2.86-5.54-.88-9.64-2.38-12.33-4.48-2.68-2.1-4.02-4.87-4.02-8.3,0-3.82,1.48-6.82,4.44-9.01,2.96-2.19,7.04-3.28,12.25-3.28s9.55,1.19,12.7,3.57c3.15,2.38,4.9,5.67,5.23,9.88h-6.89c-.28-2.32-1.36-4.12-3.24-5.4-1.88-1.27-4.46-1.91-7.72-1.91-3.1,0-5.52.55-7.26,1.66s-2.62,2.6-2.62,4.48.88,3.25,2.66,4.28c1.77,1.02,4.87,2.01,9.3,2.95,5.48,1.05,9.61,2.71,12.41,4.98,2.79,2.27,4.19,5.06,4.19,8.39,0,3.71-1.59,6.69-4.77,8.96-3.18,2.27-7.43,3.4-12.74,3.4-3.71,0-6.99-.59-9.83-1.78Z"
         id="path2536" />
      <path
         class="cls-2"
         d="m625.65,463.92c-.85-.44-1.51-1.09-1.95-1.95-.44-.86-.66-1.78-.66-2.78,0-1.6.51-2.92,1.53-3.94,1.02-1.02,2.37-1.53,4.03-1.53,1.1,0,2.09.22,2.95.66.86.44,1.52,1.09,1.99,1.95.47.86.71,1.79.71,2.78,0,1.6-.51,2.92-1.54,3.94s-2.4,1.54-4.11,1.54c-1.11,0-2.09-.22-2.95-.66Z"
         id="path2538" />
      <path
         class="cls-2"
         d="m683.3,405.82h6.8l23.9,58.11h-7.72l-6.06-14.61-1.08-2.74-14.69-36.03h4.4l-14.61,36.03-1.16,2.74-5.89,14.61h-7.8l23.91-58.11Zm-14.2,38.1h35.2l.08,6.81h-35.36l.08-6.81Z"
         id="path2540" />
      <path
         class="cls-2"
         d="m728.5,462.51c-2.68-1.66-4.74-4-6.18-7.01-1.44-3.02-2.16-6.57-2.16-10.67v-23.99h6.89v23.33c0,4.37,1.08,7.82,3.24,10.33,2.16,2.52,5.09,3.78,8.8,3.78,2.66,0,5.02-.65,7.1-1.95,2.07-1.3,3.68-3.14,4.81-5.52,1.13-2.38,1.7-5.12,1.7-8.22v-21.75h6.97v43.08h-5.73l-1-8.63,1.41.58c-1.77,3.04-4.07,5.33-6.89,6.85-2.82,1.52-5.92,2.28-9.3,2.28-3.77,0-6.99-.83-9.67-2.49Z"
         id="path2542" />
      <path
         class="cls-2"
         d="m782.62,459.85c-2.63-2.71-3.94-6.53-3.94-11.46v-22.99l1.57,1.83h-10.62v-6.39h4.32c1.38,0,2.45-.14,3.19-.41.74-.28,1.3-.76,1.66-1.45.36-.69.62-1.7.79-3.03l.66-5.81h5.4v12.45l-2.07-1.74h16.02v6.39h-15.52l1.57-1.83v22.74c0,3.1.68,5.4,2.04,6.89,1.35,1.49,3.47,2.24,6.35,2.24h6.14v6.64h-6.47c-4.76,0-8.45-1.36-11.08-4.07Z"
         id="path2544" />
      <path
         class="cls-2"
         d="m817.65,462.09c-3.46-1.94-6.17-4.62-8.14-8.05-1.96-3.43-2.95-7.33-2.95-11.7s.98-8.26,2.95-11.66c1.96-3.4,4.68-6.07,8.14-8.01,3.46-1.94,7.37-2.91,11.74-2.91s8.29.97,11.75,2.91c3.46,1.94,6.17,4.61,8.13,8.01,1.96,3.4,2.95,7.29,2.95,11.66s-.99,8.27-2.95,11.7c-1.96,3.43-4.68,6.12-8.13,8.05-3.46,1.94-7.38,2.91-11.75,2.91s-8.29-.97-11.74-2.91Zm20-5.81c2.41-1.33,4.27-3.21,5.6-5.65s1.99-5.2,1.99-8.3-.66-5.78-1.99-8.22-3.19-4.33-5.6-5.69c-2.41-1.36-5.16-2.03-8.26-2.03s-5.85.68-8.26,2.03c-2.41,1.36-4.28,3.25-5.61,5.69-1.32,2.44-1.99,5.18-1.99,8.22s.66,5.87,1.99,8.3c1.33,2.44,3.2,4.32,5.61,5.65,2.4,1.33,5.16,1.99,8.26,1.99s5.85-.66,8.26-1.99Z"
         id="path2546" />
      <path
         class="cls-2"
         d="m864.26,420.84h5.73l.99,8.22-1.99-.17c1.49-2.99,3.58-5.26,6.27-6.8s5.82-2.33,9.42-2.33,7,.86,9.71,2.57c2.71,1.72,4.73,4.18,6.06,7.39h-1.58c1.66-3.21,3.96-5.67,6.89-7.39,2.93-1.71,6.28-2.57,10.05-2.57s6.82.8,9.5,2.41c2.69,1.61,4.75,3.86,6.19,6.76s2.16,6.35,2.16,10.33v24.65h-6.97v-23.49c0-4.26-1.07-7.67-3.19-10.21-2.13-2.55-4.99-3.82-8.59-3.82s-6.78,1.33-9.05,3.98c-2.27,2.66-3.41,6.2-3.41,10.62v22.91h-6.97v-23.49c0-4.26-1.07-7.67-3.2-10.21-2.13-2.55-4.99-3.82-8.59-3.82-3.82,0-6.85,1.33-9.09,3.98-2.24,2.66-3.36,6.2-3.36,10.62v22.91h-6.97v-43.08Z"
         id="path2548" />
      <path
         class="cls-2"
         d="m953.49,463.01c-2.49-1.05-4.4-2.56-5.73-4.52-1.33-1.96-1.99-4.3-1.99-7.01,0-3.93,1.34-7.05,4.02-9.38,2.68-2.32,6.3-3.48,10.83-3.48h19.59v6.14h-19.34c-2.44,0-4.4.59-5.89,1.78-1.49,1.19-2.24,2.81-2.24,4.86s.89,3.79,2.66,5.06c1.77,1.27,4.18,1.91,7.22,1.91s5.68-.59,8.09-1.79c2.41-1.19,4.27-2.85,5.6-4.98,1.33-2.13,1.99-4.55,1.99-7.26v-1.66l-.08-1.25v-4.4c0-2.21-.47-4.14-1.41-5.77-.94-1.63-2.3-2.88-4.07-3.74-1.77-.86-3.88-1.29-6.31-1.29-2.77,0-5.19.61-7.26,1.83-2.08,1.22-3.44,2.91-4.11,5.06h-7.06c.94-4.15,3.06-7.41,6.35-9.79,3.29-2.38,7.29-3.57,11.99-3.57,3.71,0,6.99.71,9.84,2.12,2.85,1.41,5.06,3.39,6.64,5.93,1.58,2.55,2.37,5.45,2.37,8.72v27.39h-5.73l-1.25-9.79,3.74-1.08c-1.22,2.49-2.77,4.61-4.65,6.35-1.88,1.74-4.07,3.04-6.56,3.9-2.49.86-5.29,1.29-8.38,1.29-3.43,0-6.39-.53-8.88-1.58Z"
         id="path2550" />
      <path
         class="cls-2"
         d="m1005.9,459.85c-2.63-2.71-3.94-6.53-3.94-11.46v-22.99l1.57,1.83h-10.62v-6.39h4.32c1.38,0,2.45-.14,3.19-.41.74-.28,1.3-.76,1.66-1.45.36-.69.62-1.7.79-3.03l.66-5.81h5.4v12.45l-2.07-1.74h16.02v6.39h-15.52l1.57-1.83v22.74c0,3.1.68,5.4,2.04,6.89,1.35,1.49,3.47,2.24,6.35,2.24h6.14v6.64h-6.47c-4.76,0-8.45-1.36-11.08-4.07Z"
         id="path2552" />
      <path
         class="cls-2"
         d="m1040.44,462.14c-3.35-1.91-5.95-4.58-7.8-8.01s-2.78-7.36-2.78-11.79.94-8.26,2.82-11.66c1.88-3.4,4.51-6.07,7.88-8.01,3.38-1.94,7.19-2.91,11.46-2.91,4.54,0,8.51,1.07,11.91,3.19,3.4,2.13,5.99,5.12,7.76,8.96,1.77,3.85,2.6,8.26,2.49,13.24h-40.26v-6.14h36.36l-2.91,1.24c-.33-2.88-1.19-5.37-2.57-7.47-1.38-2.1-3.17-3.71-5.35-4.81-2.19-1.11-4.66-1.66-7.43-1.66-2.93,0-5.56.66-7.88,1.99-2.32,1.33-4.14,3.18-5.44,5.56-1.3,2.38-1.95,5.12-1.95,8.22v.25c0,3.21.65,6.03,1.95,8.47,1.3,2.44,3.1,4.32,5.4,5.65,2.3,1.33,4.94,1.99,7.93,1.99s5.47-.61,7.76-1.83c2.3-1.22,4.11-2.96,5.44-5.23h7.97c-1.77,4.26-4.55,7.6-8.34,10-3.79,2.41-8.1,3.61-12.91,3.61-4.32,0-8.15-.95-11.5-2.86Z"
         id="path2554" />
      <path
         class="cls-2"
         d="m1093.31,462.05c-3.35-1.96-5.97-4.66-7.85-8.09-1.88-3.43-2.82-7.3-2.82-11.62s.94-8.18,2.82-11.58c1.88-3.4,4.49-6.09,7.85-8.05,3.35-1.96,7.12-2.95,11.33-2.95s7.9.98,11.25,2.95,5.96,4.65,7.85,8.05c1.88,3.4,2.82,7.26,2.82,11.58s-.94,8.19-2.82,11.62c-1.88,3.43-4.5,6.13-7.85,8.09s-7.1,2.95-11.25,2.95-7.98-.98-11.33-2.95Zm20.42-5.81c2.41-1.35,4.27-3.24,5.6-5.65,1.33-2.41,1.99-5.13,1.99-8.18s-.66-5.85-1.99-8.26c-1.33-2.41-3.19-4.3-5.6-5.69-2.41-1.38-5.16-2.07-8.26-2.07s-5.85.69-8.26,2.07c-2.41,1.38-4.28,3.28-5.61,5.69-1.32,2.41-1.99,5.13-1.99,8.18s.66,5.85,1.99,8.26c1.33,2.41,3.2,4.29,5.61,5.65,2.4,1.36,5.16,2.03,8.26,2.03s5.85-.68,8.26-2.03Zm7.6-.37l2.99-13.86-3.24-9.46v-30.05h6.97v61.43h-5.73l-.99-8.05Z"
         id="path2556" />
      <path
         class="cls-2"
         d="m1143.45,463.92c-.85-.44-1.51-1.09-1.95-1.95-.44-.86-.66-1.78-.66-2.78,0-1.6.51-2.92,1.53-3.94,1.02-1.02,2.37-1.53,4.03-1.53,1.1,0,2.09.22,2.95.66.86.44,1.52,1.09,1.99,1.95.47.86.71,1.79.71,2.78,0,1.6-.51,2.92-1.54,3.94-1.02,1.02-2.4,1.54-4.11,1.54-1.11,0-2.09-.22-2.95-.66Z"
         id="path2558" />
    </g>
    <rect
       class="cls-2"
       x="34"
       y="355.17"
       width="1124.77"
       height="7.91"
       id="rect2562" />
  </g>
  <g
     id="g2588">
    <g
       id="g2584">
      <g
         id="g2572">
        <path
           class="cls-2"
           d="m1077.07,25.53h-167.79c-1.88,0-3.39,1.5-3.39,3.39v251.3c0,1.88,1.5,3.39,3.39,3.39h69.22c1.88,0,3.39-1.5,3.39-3.39v-78.25c0-1.88,1.5-3.39,3.39-3.39h89.91c47.4,0,87.28-36.87,88.78-84.27,1.13-48.53-38.37-88.78-86.9-88.78Zm10.53,86.53c0,11.66-9.41,20.69-21.07,20.69h-82.01c-1.88,0-3.39-1.5-3.39-3.39v-35.36c0-1.88,1.5-3.39,3.39-3.39h81.64c12.04.38,21.44,9.78,21.44,21.44h0Z"
           id="path2566" />
        <path
           class="cls-2"
           d="m578.23,283.6c3.01,0,5.27-2.26,5.27-5.27v-54.93c0-3.01-2.26-5.27-5.27-5.27h-173.05c-2.26,0-3.76-1.88-3.76-3.76v-24.83c0-2.26,1.88-3.76,3.76-3.76h115.87c3.01,0,5.27-2.26,5.27-5.27v-50.03c0-3.01-2.63-5.64-5.64-5.64h-115.87c-2.26,0-3.76-1.88-3.76-3.76v-26.33c0-2.26,1.88-3.76,3.76-3.76h173.05c3.01,0,5.27-2.26,5.27-5.27V30.79c0-3.01-2.26-5.27-5.27-5.27h-247.16c-3.01,0-5.27,2.26-5.27,5.27v247.92c0,3.01,2.26,5.27,5.27,5.27h247.54v-.38Z"
           id="path2568" />
        <path
           class="cls-1"
           d="m124.54,29.29v58.31c0,1.88,1.5,3.39,3.39,3.39h44.77c3.01,0,4.51,3.39,2.26,5.64l-68.09,67.72c-1.88,2.26-5.64.75-5.64-2.26v-42.89c0-2.26-1.88-3.76-3.76-3.76h-58.69c-1.88,0-3.76,1.5-3.76,3.76v161.39c0,2.26,1.88,3.76,3.76,3.76h161.77c2.26,0,3.76-1.88,3.76-3.76v-58.31c0-2.26-1.88-3.76-3.76-3.76h-44.02c-3.01,0-4.51-3.76-2.26-5.64l68.09-67.72c2.26-2.26,5.64-.75,5.64,2.26v43.26c0,2.26,1.88,3.76,3.76,3.76h58.69c2.26,0,3.76-1.88,3.76-3.76V29.29c0-2.26-1.88-3.76-3.76-3.76h-161.77c-2.26,0-4.14,1.88-4.14,3.76Z"
           id="path2570" />
      </g>
      <g
         id="g2582">
        <path
           class="cls-2"
           d="m988.29,267.05c0-.75.38-1.13,1.13-1.13h15.42c.75,0,1.13.38,1.13,1.13v14.3c0,.75-.38,1.13-1.13,1.13h-15.42c-.75,0-1.13-.38-1.13-1.13v-14.3Z"
           id="path2574" />
        <path
           class="cls-2"
           d="m1046.23,282.47c-.75,0-1.13-.38-1.13-1.13v-28.97c0-4.89-2.26-7.52-6.4-7.52s-6.77,2.63-6.77,7.52v28.97c0,.75-.38,1.13-1.13,1.13h-16.55c-.75,0-1.13-.38-1.13-1.13v-48.53c0-.75.38-1.13,1.13-1.13h16.55c.75,0,1.13.38,1.13,1.13v3.76h0c3.01-4.14,7.52-6.02,13.92-6.02,12.04,0,18.06,7.15,18.06,18.81v31.98c0,.75-.38,1.13-1.13,1.13,0,0-16.55,0-16.55,0Z"
           id="path2576" />
        <path
           class="cls-2"
           d="m1072.56,268.93c-1.13-3.39-1.88-7.15-1.88-11.66s.38-8.65,1.5-11.66c3.39-9.41,12.04-15.05,24.08-15.05,12.79,0,21.44,5.27,24.45,14.67,1.13,3.39,1.88,8.65,1.88,15.8,0,.75-.38,1.13-1.13,1.13h-31.98c-.38,0-.75.38-.75.75,0,.75.38,1.5.38,2.26,1.13,3.76,4.89,5.64,10.53,5.64,4.51,0,8.65-1.5,12.04-4.14.38-.38,1.13-.38,1.5,0l7.9,7.52c.75.38.75,1.13,0,1.5-6.02,5.64-13.92,8.28-23.7,8.28-12.41-.38-21.44-5.64-24.83-15.05Zm31.98-17.31c.38,0,.75-.38.75-.75,0-1.5,0-2.26-.38-3.01-1.13-3.01-3.39-4.51-7.52-4.51s-6.4,1.5-7.52,4.51c-.38,1.13-.38,2.26-.38,3.01,0,.38.38.75.75.75h14.3Z"
           id="path2578" />
        <path
           class="cls-2"
           d="m1153.07,283.22c-14.3,0-19.56-5.27-19.56-19.19v-19.19c0-.38-.38-.75-.75-.75h-3.01c-.75,0-1.13-.38-1.13-1.13v-10.16c0-.75.38-1.13,1.13-1.13h3.01c.38,0,.75-.38.75-.75v-12.79c0-.75.38-1.13,1.13-1.13h16.18c.75,0,1.13.38,1.13,1.13v13.92h7.52c.75,0,1.13.38,1.13,1.13v10.53c0,.75-.38,1.13-1.13,1.13h-7.52v18.81c0,4.14,1.5,5.27,4.89,5.27h2.26c.75,0,1.13.38,1.13,1.13v12.41c0,.75-.38,1.13-1.13,1.13h-6.02v-.38Z"
           id="path2580" />
      </g>
    </g>
    <path
       class="cls-2"
       d="m874.3,114.69c1.5-48.91-38-89.16-86.53-89.16h-167.79c-1.88,0-3.39,1.5-3.39,3.39v251.3c0,1.88,1.5,3.39,3.39,3.39h69.22c1.88,0,3.39-1.5,3.39-3.39v-78.25c0-1.88,1.5-3.39,3.39-3.39h21.82c1.88,0,3.76,1.13,4.89,2.63l57.56,79c1.5,1.88,3.76,3.01,6.02,3.01h83.52c1.88,0,3.01-2.26,1.88-3.76l-60.57-82.76c-.38-.75,0-1.5.75-1.88,34.61-10.53,61.32-42.13,62.45-80.13Zm-182.08-20.69c0-1.88,1.5-3.39,3.39-3.39h81.64c11.66,0,21.44,9.41,21.44,21.07h0c0,11.66-9.41,20.69-21.07,20.69h-82.01c-1.88,0-3.39-1.5-3.39-3.39v-34.99Z"
       id="path2586" />
  </g>
</svg>
