<svg xmlns="http://www.w3.org/2000/svg" viewBox="0 0 296.92 81.42"><defs><style>.cls-1{fill:#262262;}.cls-2{fill:#f49b11;}</style></defs><g id="Layer_2" data-name="Layer 2"><g id="Layer_1-2" data-name="Layer 1"><path class="cls-1" d="M.21,14.49c-.15,0-.21-.06-.21-.21V.46C0,.31.06.25.21.25h5.7C9.28.25,11.18,2.14,11.18,5A4.55,4.55,0,0,1,9.8,8.42,5.41,5.41,0,0,1,5.91,9.74H3.81a.11.11,0,0,0-.12.12v4.42c0,.15-.07.21-.21.21ZM5.7,6.62A1.58,1.58,0,0,0,7.5,5c0-1-.65-1.61-1.8-1.61H3.81c-.08,0-.12,0-.12.13v3c0,.09,0,.13.12.13Z"/><path class="cls-1" d="M12.49,7.37a13.76,13.76,0,0,1,.42-3.87C13.64,1.24,15.65,0,18.24,0s4.61,1.24,5.35,3.5A13.68,13.68,0,0,1,24,7.37a13.63,13.63,0,0,1-.41,3.87c-.74,2.27-2.75,3.5-5.35,3.5s-4.6-1.23-5.33-3.5A13.72,13.72,0,0,1,12.49,7.37Zm7.79,0a11.25,11.25,0,0,0-.21-2.83,1.74,1.74,0,0,0-1.83-1.25,1.73,1.73,0,0,0-1.82,1.25,11.25,11.25,0,0,0-.21,2.83,11.25,11.25,0,0,0,.21,2.83,1.72,1.72,0,0,0,1.82,1.25,1.73,1.73,0,0,0,1.83-1.25A11.25,11.25,0,0,0,20.28,7.37Z"/><path class="cls-1" d="M36.91,14.49a.26.26,0,0,1-.28-.21l-2.23-8h0l-2.26,8a.24.24,0,0,1-.27.21H29.2a.24.24,0,0,1-.27-.21L25.06.46c0-.15,0-.21.16-.21h3.44a.24.24,0,0,1,.27.21l1.84,8.29h0L33,.46a.25.25,0,0,1,.28-.21h2.15a.26.26,0,0,1,.28.21L38,8.75h0L39.84.46a.22.22,0,0,1,.25-.21h3.43c.15,0,.19.06.15.21L39.82,14.28a.27.27,0,0,1-.29.21Z"/><path class="cls-1" d="M45,.46c0-.15.06-.21.21-.21H54.5c.15,0,.21.06.21.21v2.7c0,.15-.06.21-.21.21H48.79c-.09,0-.13,0-.13.13V5.65c0,.09,0,.13.13.13h4.69c.15,0,.21.06.21.21V8.63c0,.14-.06.21-.21.21H48.79c-.09,0-.13,0-.13.12v2.28c0,.09,0,.13.13.13H54.5c.15,0,.21.06.21.21v2.7c0,.15-.06.21-.21.21H45.19c-.15,0-.21-.06-.21-.21Z"/><path class="cls-1" d="M64.29,14.49a.32.32,0,0,1-.32-.21L61.82,9.42H60.46c-.09,0-.13,0-.13.13v4.73c0,.15-.06.21-.21.21H56.86c-.15,0-.21-.06-.21-.21V.46c0-.15.06-.21.21-.21h5.8a5.2,5.2,0,0,1,3.76,1.28,4.31,4.31,0,0,1,1.37,3.31,4.26,4.26,0,0,1-2.35,4l2.62,5.42a.17.17,0,0,1-.15.25Zm-1.86-8.1A1.49,1.49,0,0,0,64.1,4.88a1.49,1.49,0,0,0-1.67-1.51h-2c-.09,0-.13,0-.13.13V6.26c0,.09,0,.13.13.13Z"/><path class="cls-1" d="M69.82.46c0-.15.06-.21.21-.21h9.32c.15,0,.21.06.21.21v2.7c0,.15-.06.21-.21.21H73.63c-.08,0-.12,0-.12.13V5.65c0,.09,0,.13.12.13h4.69c.15,0,.21.06.21.21V8.63c0,.14-.06.21-.21.21H73.63a.11.11,0,0,0-.12.12v2.28c0,.09,0,.13.12.13h5.72c.15,0,.21.06.21.21v2.7c0,.15-.06.21-.21.21H70c-.15,0-.21-.06-.21-.21Z"/><path class="cls-1" d="M81.49.46c0-.15.06-.21.21-.21h5.51c2.68,0,4.37,1.09,5.07,3.25a14,14,0,0,1,.41,3.87,13.92,13.92,0,0,1-.41,3.87c-.7,2.16-2.39,3.25-5.07,3.25H81.7c-.15,0-.21-.06-.21-.21ZM85.18,11.1a.11.11,0,0,0,.12.12h1.11c1.32,0,2-.37,2.35-1.36A9.93,9.93,0,0,0,89,7.37a9.93,9.93,0,0,0-.21-2.49c-.34-1-1-1.36-2.35-1.36H85.3a.11.11,0,0,0-.12.12Z"/><path class="cls-1" d="M99.69.46c0-.15.07-.21.22-.21h5.79c3.1,0,4.65,1.45,4.65,3.79a3.19,3.19,0,0,1-1.73,3.06v0a3.41,3.41,0,0,1,2,3.25c0,2.7-1.86,4.1-5,4.1H99.91c-.15,0-.22-.06-.22-.21ZM105,6c1.13,0,1.7-.48,1.7-1.47S106.12,3,105,3h-1.48c-.09,0-.13,0-.13.12V5.84c0,.09,0,.13.13.13Zm-1.61,5.61a.12.12,0,0,0,.13.13h1.67c1.15,0,1.74-.55,1.74-1.62s-.59-1.59-1.74-1.59h-1.67c-.09,0-.13,0-.13.13Z"/><path class="cls-1" d="M115.45,14.49c-.15,0-.21-.06-.21-.21V9L110.93.48c-.07-.14,0-.23.16-.23h3.29a.36.36,0,0,1,.34.21l2.38,4.86h.07L119.51.46a.32.32,0,0,1,.34-.21h3.22c.17,0,.23.09.17.23L118.92,9v5.3c0,.15-.06.21-.21.21Z"/><path class="cls-1" d="M242.08,22.08h-38.5a.78.78,0,0,0-.78.78V80.64a.78.78,0,0,0,.78.78h15.86a.77.77,0,0,0,.77-.76v-18a.76.76,0,0,1,.77-.76h20.6a20.21,20.21,0,0,0,20.35-19.34A19.85,19.85,0,0,0,242.08,22.08ZM244.53,42a4.8,4.8,0,0,1-4.8,4.8H221a.76.76,0,0,1-.76-.76V37.85a.76.76,0,0,1,.76-.76h18.68A4.88,4.88,0,0,1,244.53,42Z"/><path class="cls-1" d="M126,81.3a.78.78,0,0,0,.78-.78V67.07a.78.78,0,0,0-.78-.79H85.51A.47.47,0,0,1,85,65.8V59.24a.48.48,0,0,1,.48-.49h27.38a.81.81,0,0,0,.81-.81V45.65a.91.91,0,0,0-.91-.91H85.51a.47.47,0,0,1-.48-.48v-6.8a.48.48,0,0,1,.48-.49H126a.78.78,0,0,0,.78-.78V22.74A.78.78,0,0,0,126,22H68.46a.78.78,0,0,0-.78.79V80.52a.78.78,0,0,0,.78.78Z"/><path class="cls-1" d="M270.9,35.16c0-.31.12-.44.41-.44h11.48c1.94,0,2.94-.88,2.94-2.6s-1.12-2.64-2.94-2.64H271.31c-.29,0-.41-.14-.41-.44V22.52c0-.31.12-.44.41-.44H290.6c.29,0,.41.13.41.44V29c0,.3-.12.44-.41.44h-1.44v0c1.57,1.15,2.35,3,2.35,5.51,0,4.71-2.89,7.09-7.52,7.09H271.31c-.29,0-.41-.13-.41-.44Z"/><path class="cls-1" d="M276.31,45.82a13.17,13.17,0,0,1,4.62-.7,14.52,14.52,0,0,1,4.67.66c3.76,1.36,5.91,4.8,5.91,9.6,0,5.07-2.06,8.46-5.82,9.7a20.13,20.13,0,0,1-6.28.7c-.29,0-.42-.17-.42-.48V52.56c0-.17-.08-.26-.25-.26a4.16,4.16,0,0,0-.82.18c-1.45.48-2.19,1.89-2.19,4.14a7.72,7.72,0,0,0,1.61,4.8.42.42,0,0,1,0,.66l-3,3.13c-.2.26-.41.26-.62,0a13.46,13.46,0,0,1-3.3-9.34C270.4,50.67,272.55,47.1,276.31,45.82Zm6.9,12.56q0,.27.24.27a3.15,3.15,0,0,0,1.24-.18c1.2-.4,1.82-1.41,1.82-3s-.62-2.6-1.82-3a4.09,4.09,0,0,0-1.24-.18c-.16,0-.24.09-.24.26Z"/><path class="cls-1" d="M270.65,78.5c0-5.64,2.15-7.8,7.6-7.8h7.56a.23.23,0,0,0,.25-.26V69.2c0-.3.12-.44.41-.44h4.13c.29,0,.41.14.41.44v1.24a.23.23,0,0,0,.25.26h5.25c.29,0,.41.13.41.44v6.43c0,.31-.12.44-.41.44H291v3c0,.31-.12.44-.41.44h-4.13c-.29,0-.41-.13-.41-.44V78h-7.52c-1.61,0-2.11.53-2.11,2v1c0,.31-.12.44-.41.44h-5c-.29,0-.41-.13-.41-.44Z"/><path class="cls-1" d="M261.94,80.93c0,.33-.15.48-.51.48h-7.15c-.36,0-.52-.15-.52-.48V74.27c0-.33.16-.48.52-.48h7.15c.36,0,.51.15.51.48Z"/><path class="cls-2" d="M20.53,22.43V36.15a.47.47,0,0,0,.48.47H33.18a.25.25,0,0,1,.17.43L15.61,54.79a.24.24,0,0,1-.42-.17V43.06a.49.49,0,0,0-.48-.48H.48a.48.48,0,0,0-.48.48V81a.47.47,0,0,0,.48.47H38.36a.47.47,0,0,0,.48-.47V67.23a.47.47,0,0,0-.48-.48H26.09a.25.25,0,0,1-.18-.42L43.76,48.48a.24.24,0,0,1,.42.17V60.31a.49.49,0,0,0,.48.48H58.89a.48.48,0,0,0,.48-.48V22.43a.47.47,0,0,0-.48-.48H21A.47.47,0,0,0,20.53,22.43Z"/><path class="cls-1" d="M194.16,42.42A19.86,19.86,0,0,0,174.31,22h-38.5a.78.78,0,0,0-.78.78V80.52a.78.78,0,0,0,.78.78h15.85a.78.78,0,0,0,.78-.76v-18a.76.76,0,0,1,.76-.76h5a1.4,1.4,0,0,1,1.15.59l13.24,18.14a1.7,1.7,0,0,0,1.38.7h19.12a.53.53,0,0,0,.42-.84l-13.9-19.05a.27.27,0,0,1,.14-.42A20,20,0,0,0,194.16,42.42Zm-41.72-4.69a.76.76,0,0,1,.76-.76h18.68a4.88,4.88,0,0,1,4.88,4.87h0a4.79,4.79,0,0,1-4.8,4.79H153.2a.76.76,0,0,1-.76-.75Z"/></g></g></svg>