<?xml version="1.0" encoding="UTF-8"?>
<svg id="Layer_1" data-name="Layer 1" xmlns="http://www.w3.org/2000/svg" viewBox="0 0 641.64 198.11">
  <defs>
    <style>
      .cls-1 {
        fill: #fff;
      }

      .cls-2 {
        fill: #f39b1f;
      }
    </style>
  </defs>
  <g>
    <path class="cls-2" d="M51.81,88.27v20.86c0,.4.27.66.66.66h18.6c.4,0,.53.4.27.66l-26.97,27.1c-.27.13-.66,0-.66-.27v-17.67c0-.4-.27-.66-.66-.66h-21.79c-.4,0-.66.27-.66.66v57.65c0,.4.27.66.66.66h57.65c.4,0,.66-.27.66-.66v-20.86c0-.4-.27-.66-.66-.66h-18.6c-.4,0-.53-.4-.27-.66l27.1-27.1c.27-.27.66-.13.66.27v17.8c0,.4.27.66.66.66h21.65c.4,0,.66-.27.66-.66v-57.79c0-.4-.27-.66-.66-.66h-57.52c-.4-.13-.8.27-.8.66Z"/>
    <g>
      <path class="cls-1" d="M151.92,153.85v-10.37c0-.59.48-1.07,1.07-1.07h51.88c.59,0,1.07-.48,1.07-1.07v-19c0-.59-.48-1.07-1.07-1.07h-51.88c-.59,0-1.07-.48-1.07-1.07v-9.34c0-.59.48-1.07,1.07-1.07h56.65c.59,0,1.07-.48,1.07-1.07v-20.42c0-.59-.48-1.07-1.07-1.07h-83.34c-.59,0-1.07.48-1.07,1.07v88.1c0,.59.48,1.07,1.07,1.07h85.67c.59,0,1.07-.48,1.07-1.07v-20.42c0-.59-.48-1.07-1.07-1.07h-58.98c-.59,0-1.07-.48-1.07-1.07Z"/>
      <path class="cls-1" d="M318.4,177.48c.88,0,1.38-1.01.85-1.71l-23.45-30.98c.64-.27,1.37-.38,1.99-.69,5.37-2.66,9.6-6.34,12.69-11.02,3.09-4.68,4.64-10.08,4.64-16.18s-1.35-11.75-4.06-16.18c-2.71-4.43-6.83-7.78-12.37-10.06-5.55-2.28-12.62-3.41-21.21-3.41h-51.01c-.59,0-1.07.48-1.07,1.07v88.1c0,.59.48,1.07,1.07,1.07h23.9c.59,0,1.07-.48,1.07-1.07v-27.25c0-.59.48-1.07,1.07-1.07h13.78c.34,0,.65.16.85.43l21.5,28.54c.2.27.52.43.85.43h28.91ZM251.44,110.22c0-.59.48-1.07,1.07-1.07h23.04c2.15,0,4.12.34,5.93,1.03,1.8.69,3.24,1.74,4.32,3.16,1.07,1.42,1.62,3.29,1.62,5.61s-.55,4.09-1.62,5.54c-1.08,1.46-2.48,2.54-4.19,3.23-1.72.69-3.62,1.03-5.68,1.03h-23.43c-.59,0-1.07-.48-1.07-1.07v-17.46Z"/>
      <path class="cls-1" d="M331.5,176.41v-88.1c0-.59.48-1.07,1.07-1.07h55.52c6.62,0,12.53,1.33,17.73,4,5.2,2.66,9.33,6.32,12.38,10.96,3.04,4.64,4.57,9.97,4.57,15.98,0,6.53-1.64,12.35-4.9,17.47-3.26,5.11-7.71,9.11-13.35,11.99s-11.97,4.32-19.01,4.32h-25.11c-.59,0-1.07.48-1.07,1.07v23.39c0,.59-.48,1.07-1.07,1.07h-25.71c-.59,0-1.07-.48-1.07-1.07ZM358.83,127.16c0,.59.48,1.07,1.07,1.07h19.43c2.66,0,5.05-.37,7.16-1.1,2.1-.73,3.8-1.83,5.09-3.29,1.29-1.46,1.94-3.18,1.94-5.16,0-1.8-.65-3.26-1.94-4.38-1.29-1.12-2.99-1.96-5.09-2.51-2.11-.56-4.49-.84-7.16-.84h-19.43c-.59,0-1.07.48-1.07,1.07v15.14Z"/>
      <path class="cls-1" d="M495.89,138.56c-1.76-3.12-4.3-5.61-7.6-7.47-3.29-1.86-7.28-2.79-11.96-2.79-4.26,0-8.05.72-11.38,2.16-3.26,1.41-5.9,3.29-7.95,5.59l-.46-6.76h-15.84c-.59,0-1.07.48-1.07,1.07v45.98c0,.59.48,1.07,1.07,1.07h16.13c.59,0,1.07-.48,1.07-1.07v-22.77c0-1.08.23-2.23.67-3.46.45-1.23,1.13-2.37,2.07-3.42.93-1.05,2.11-1.92,3.55-2.61,1.44-.69,3.18-1.04,5.22-1.04,2.22,0,4.14.45,5.75,1.35,1.62.9,2.88,2.14,3.78,3.73.9,1.59,1.35,3.43,1.35,5.53v22.68c0,.59.48,1.07,1.07,1.07h16.12c.59,0,1.07-.48,1.07-1.07v-27.36c0-3.84-.89-7.32-2.66-10.43Z"/>
      <path class="cls-1" d="M567.88,153.31c.12-3.72-.59-7.11-2.12-10.16-1.52-3.06-3.68-5.7-6.47-7.92-2.79-2.22-6.06-3.93-9.81-5.13-3.75-1.2-7.84-1.8-12.28-1.8-4.19,0-8.2.58-12.01,1.75-3.81,1.17-7.19,2.83-10.12,4.99-2.94,2.16-5.25,4.78-6.92,7.87-1.68,3.09-2.52,6.55-2.52,10.39,0,4.8,1.38,9.08,4.14,12.86,2.76,3.78,6.7,6.75,11.83,8.91,5.12,2.16,11.17,3.24,18.12,3.24,3.3,0,6.45-.23,9.44-.68,3-.45,5.89-1.17,8.68-2.16,2.4-.85,4.73-1.9,6.98-3.13.57-.31.74-1.08.36-1.6l-7.03-9.88c-.96.42-2.7,1.02-5.22,1.8-2.52.78-5.94,1.17-10.25,1.17s-7.92-.55-10.98-1.67c-3.05-1.11-5.4-2.56-7.01-4.36-.13-.14-.17-.3-.29-.45h43.37l.09-4.05ZM530.11,143.1c2.34-.69,4.83-1.03,7.47-1.03s4.82.3,6.88.9c2.07.6,3.75,1.39,5.04,2.39.74.57,1.23,1.19,1.59,1.84h-27.22c.21-.29.33-.64.59-.9,1.44-1.44,3.33-2.5,5.67-3.2Z"/>
    </g>
    <circle class="cls-1" cx="412.69" cy="168.69" r="10.08"/>
    <path class="cls-1" d="M617.55,163.42c-.17-.48-.7-.73-1.17-.55-1.26.46-2.73.69-4.39.69-2.22,0-4.14-.45-5.77-1.35-1.62-.9-2.88-2.15-3.78-3.74-.75-1.33-1.12-2.88-1.24-4.57,0-.03,0-.06,0-.09v-8.33c0-.51.42-.93.93-.93h13.28c.51,0,.93-.42.93-.93v-13.46c0-.51-.42-.93-.93-.93h-13.28c-.51,0-.93-.42-.93-.93v-13.01c0-.51-.42-.93-.93-.93h-16.43c-.51,0-.93.42-.93.93v13.85h-.1v.09h-9.99c-.51,0-.93.42-.93.93v13.46c0,.51.42.93.93.93h9.07c.51,0,.93.42.93.93v12.14c0,.29.09.55.1.84v1.31h.16c.28,2.98.97,5.79,2.4,8.3,1.77,3.12,4.31,5.62,7.61,7.48,3.3,1.86,7.3,2.79,11.98,2.79,4.26,0,8.06-.72,11.4-2.16,1.53-.66,2.93-1.42,4.19-2.28.35-.24.48-.69.34-1.09l-3.43-9.38Z"/>
  </g>
  <g>
    <path class="cls-2" d="M166.1,21.39c-2.27-1.02-4.99-1.54-8.17-1.54h-14.74v35.84h6.66v-10.34h8.09c3.17,0,5.9-.51,8.17-1.54,2.27-1.02,4.02-2.49,5.25-4.4,1.23-1.91,1.84-4.18,1.84-6.81s-.61-4.9-1.84-6.81c-1.23-1.91-2.98-3.38-5.25-4.4ZM164.26,37.85c-1.48,1.25-3.7,1.87-6.63,1.87h-7.78v-14.23h7.78c2.93,0,5.15.61,6.63,1.84,1.48,1.23,2.23,2.99,2.23,5.27s-.74,4-2.23,5.25Z"/>
    <path class="cls-2" d="M210.93,24.59c-1.74-1.65-3.78-2.94-6.12-3.86-2.34-.92-4.91-1.38-7.7-1.38s-5.32.46-7.68,1.38c-2.36.92-4.4,2.21-6.14,3.86-1.74,1.66-3.09,3.6-4.04,5.84-.96,2.24-1.43,4.68-1.43,7.35s.48,5.11,1.43,7.35c.96,2.24,2.3,4.18,4.04,5.84,1.74,1.66,3.79,2.94,6.14,3.87,2.36.92,4.93,1.38,7.73,1.38s5.32-.46,7.65-1.38c2.34-.92,4.38-2.2,6.12-3.84s3.09-3.58,4.04-5.84c.96-2.25,1.43-4.71,1.43-7.37s-.48-5.11-1.43-7.35c-.96-2.24-2.3-4.18-4.04-5.84ZM208.75,42.81c-.63,1.52-1.51,2.85-2.64,3.99-1.13,1.14-2.46,2.02-3.99,2.64s-3.21.92-5.02.92-3.48-.31-5.02-.92-2.87-1.49-3.99-2.64c-1.13-1.14-2.01-2.48-2.64-4.02-.63-1.54-.95-3.21-.95-5.02s.32-3.52.95-5.04c.63-1.52,1.52-2.85,2.66-3.99s2.47-2.02,3.99-2.64c1.52-.61,3.18-.92,4.99-.92s3.48.31,5.02.92c1.54.61,2.87,1.49,3.99,2.64,1.13,1.14,2,2.47,2.64,3.99.63,1.52.95,3.2.95,5.04s-.32,3.52-.95,5.04Z"/>
    <polygon class="cls-2" points="259.19 47.26 250.14 19.85 244 19.85 234.74 47.12 225.82 19.85 218.91 19.85 230.79 55.69 237.91 55.69 246.91 29.19 255.77 55.69 262.84 55.69 274.72 19.85 268.37 19.85 259.19 47.26"/>
    <polygon class="cls-2" points="286.8 40.23 304.1 40.23 304.1 34.75 286.8 34.75 286.8 25.43 306.3 25.43 306.3 19.85 280.14 19.85 280.14 55.69 307.02 55.69 307.02 50.11 286.8 50.11 286.8 40.23"/>
    <path class="cls-2" d="M337.36,43.74c2.27-1.01,4.02-2.46,5.25-4.35,1.23-1.89,1.84-4.15,1.84-6.78,0-3.99-1.36-7.12-4.07-9.37-2.71-2.25-6.46-3.38-11.24-3.38h-14.69v35.84h6.66v-10.44h8.09c.48,0,.94-.02,1.4-.04l7.3,10.48h7.17l-8.23-11.74c.18-.07.35-.14.52-.21ZM335.51,27.33c1.48,1.23,2.23,2.99,2.23,5.27s-.74,4.01-2.23,5.27c-1.48,1.26-3.7,1.89-6.63,1.89h-7.78v-14.28h7.78c2.93,0,5.15.61,6.63,1.84Z"/>
    <polygon class="cls-2" points="358.52 40.23 375.83 40.23 375.83 34.75 358.52 34.75 358.52 25.43 378.03 25.43 378.03 19.85 351.87 19.85 351.87 55.69 378.75 55.69 378.75 50.11 358.52 50.11 358.52 40.23"/>
    <path class="cls-2" d="M412.08,22.11c-2.94-1.5-6.35-2.25-10.24-2.25h-15.67v35.84h15.67c3.89,0,7.3-.75,10.24-2.25,2.93-1.5,5.22-3.59,6.86-6.27,1.64-2.68,2.46-5.81,2.46-9.39s-.82-6.76-2.46-9.42-3.93-4.74-6.86-6.25ZM413.07,44.22c-1.07,1.84-2.6,3.28-4.58,4.3-1.98,1.02-4.3,1.54-6.96,1.54h-8.7v-24.57h8.7c2.66,0,4.98.51,6.96,1.54,1.98,1.02,3.51,2.45,4.58,4.27,1.08,1.83,1.61,3.99,1.61,6.48s-.54,4.61-1.61,6.45Z"/>
    <path class="cls-2" d="M469.21,37.54c-.41-.19-.84-.35-1.28-.49,1.37-.73,2.49-1.71,3.33-2.99.89-1.35,1.33-2.98,1.33-4.89,0-2.83-1.13-5.09-3.38-6.78-2.25-1.69-5.53-2.53-9.83-2.53h-16.79v35.84h17.82c4.64,0,8.14-.85,10.5-2.56s3.53-4.1,3.53-7.17c0-2.08-.47-3.82-1.41-5.22-.94-1.4-2.21-2.47-3.81-3.2ZM458.66,25.08c2.32,0,4.1.41,5.35,1.23,1.25.82,1.87,2.07,1.87,3.74s-.62,2.87-1.87,3.69c-1.25.82-3.03,1.23-5.35,1.23h-9.42v-9.88h9.42ZM465.73,49.24c-1.33.82-3.24,1.23-5.73,1.23h-10.75v-10.34h10.75c2.49,0,4.4.42,5.73,1.25,1.33.84,2,2.14,2,3.92s-.67,3.12-2,3.94Z"/>
    <polygon class="cls-2" points="508.27 19.85 501.72 19.85 491.13 37.29 480.63 19.85 473.51 19.85 487.59 43.15 487.59 55.69 494.25 55.69 494.25 43.06 508.27 19.85"/>
  </g>
  <rect class="cls-2" x="20.6" y="35.71" width="92.23" height="4.99"/>
  <rect class="cls-2" x="528.08" y="35.71" width="92.23" height="4.99"/>
</svg>