<svg xmlns="http://www.w3.org/2000/svg" viewBox="0 0 233.84 260.92"><defs><style>.cls-1{fill:#fff;}.cls-2{fill:#f49b11;}</style></defs><g id="Layer_2" data-name="Layer 2"><g id="Layer_1-2" data-name="Layer 1"><path class="cls-1" d="M.27,12.91a.17.17,0,0,1-.19-.19V.41A.17.17,0,0,1,.27.22H5.34c3,0,4.7,1.68,4.7,4.22A4,4,0,0,1,8.81,7.5,4.84,4.84,0,0,1,5.34,8.68H3.48c-.08,0-.11,0-.11.11v3.93a.17.17,0,0,1-.19.19Zm4.89-7a1.41,1.41,0,0,0,1.6-1.46A1.4,1.4,0,0,0,5.16,3H3.48c-.08,0-.11,0-.11.12V5.78c0,.08,0,.12.11.12Z"/><path class="cls-1" d="M11.21,6.57a12.6,12.6,0,0,1,.37-3.45A4.63,4.63,0,0,1,16.34,0a4.62,4.62,0,0,1,4.75,3.12,11.73,11.73,0,0,1,.38,3.45A11.78,11.78,0,0,1,21.09,10a4.63,4.63,0,0,1-4.75,3.11A4.63,4.63,0,0,1,11.58,10,12.65,12.65,0,0,1,11.21,6.57Zm6.94,0A9.65,9.65,0,0,0,18,4.05a1.53,1.53,0,0,0-1.62-1.12,1.55,1.55,0,0,0-1.63,1.12,9.83,9.83,0,0,0-.18,2.52,9.93,9.93,0,0,0,.18,2.52,1.56,1.56,0,0,0,1.63,1.12A1.54,1.54,0,0,0,18,9.09,9.76,9.76,0,0,0,18.15,6.57Z"/><path class="cls-1" d="M33,12.91a.23.23,0,0,1-.24-.19l-2-7.09h0l-2,7.09a.22.22,0,0,1-.24.19H26.1a.22.22,0,0,1-.24-.19L22.4.41c0-.13,0-.19.15-.19h3.06a.23.23,0,0,1,.25.19L27.5,7.8h0l2-7.39a.23.23,0,0,1,.24-.19h1.93a.23.23,0,0,1,.24.19L34,7.8h0L35.58.41A.19.19,0,0,1,35.8.22h3.06c.13,0,.17.06.13.19L35.56,12.72a.25.25,0,0,1-.26.19Z"/><path class="cls-1" d="M40.15.41a.17.17,0,0,1,.19-.19h8.3a.17.17,0,0,1,.19.19V2.82c0,.13-.06.18-.19.18H43.55c-.08,0-.11,0-.11.12V5a.1.1,0,0,0,.11.11h4.18a.17.17,0,0,1,.19.19V7.69c0,.13-.06.18-.19.18H43.55c-.08,0-.11,0-.11.12v2a.1.1,0,0,0,.11.11h5.09a.17.17,0,0,1,.19.19v2.4a.17.17,0,0,1-.19.19h-8.3a.17.17,0,0,1-.19-.19Z"/><path class="cls-1" d="M57.36,12.91a.29.29,0,0,1-.28-.19L55.16,8.4H54c-.08,0-.12,0-.12.11v4.21c0,.13,0,.19-.18.19H50.74a.17.17,0,0,1-.19-.19V.41a.17.17,0,0,1,.19-.19h5.17a4.67,4.67,0,0,1,3.35,1.14,3.85,3.85,0,0,1,1.22,2.95,3.78,3.78,0,0,1-2.09,3.54l2.33,4.84a.15.15,0,0,1-.13.22ZM55.7,5.69a1.33,1.33,0,0,0,1.49-1.34A1.33,1.33,0,0,0,55.7,3H54a.11.11,0,0,0-.12.12V5.58c0,.07,0,.11.12.11Z"/><path class="cls-1" d="M62.29.41a.17.17,0,0,1,.19-.19h8.3c.13,0,.18.06.18.19V2.82c0,.13,0,.18-.18.18H65.69a.11.11,0,0,0-.12.12V5c0,.07,0,.11.12.11h4.17c.14,0,.19.06.19.19V7.69c0,.13,0,.18-.19.18H65.69a.11.11,0,0,0-.12.12v2c0,.07,0,.11.12.11h5.09c.13,0,.18.06.18.19v2.4c0,.13,0,.19-.18.19h-8.3a.17.17,0,0,1-.19-.19Z"/><path class="cls-1" d="M72.69.41c0-.13,0-.19.18-.19h4.91c2.39,0,3.9,1,4.51,2.9a12,12,0,0,1,.38,3.45A12,12,0,0,1,82.29,10c-.61,1.92-2.12,2.89-4.51,2.89H72.87c-.13,0-.18-.06-.18-.19ZM76,9.89a.1.1,0,0,0,.11.11h1c1.18,0,1.79-.34,2.09-1.21a8.57,8.57,0,0,0,.19-2.22,8.52,8.52,0,0,0-.19-2.22c-.3-.88-.91-1.22-2.09-1.22h-1c-.07,0-.11,0-.11.12Z"/><path class="cls-1" d="M88.9.41a.17.17,0,0,1,.19-.19h5.17C97,.22,98.4,1.51,98.4,3.6a2.83,2.83,0,0,1-1.55,2.72v0a3,3,0,0,1,1.78,2.89c0,2.41-1.67,3.66-4.43,3.66H89.09a.17.17,0,0,1-.19-.19Zm4.72,4.91c1,0,1.52-.43,1.52-1.31s-.51-1.3-1.52-1.3H92.3a.1.1,0,0,0-.11.11V5.21a.1.1,0,0,0,.11.11Zm-1.43,5a.1.1,0,0,0,.11.11h1.49c1,0,1.55-.49,1.55-1.44s-.52-1.42-1.55-1.42H92.3c-.07,0-.11,0-.11.12Z"/><path class="cls-1" d="M102.94,12.91a.17.17,0,0,1-.19-.19V8L98.91.43c-.06-.13,0-.21.15-.21H102a.33.33,0,0,1,.3.19l2.12,4.33h.06L106.56.41a.3.3,0,0,1,.3-.19h2.87c.15,0,.21.08.15.21L106,8v4.72a.17.17,0,0,1-.19.19Z"/><path class="cls-1" d="M197,150.49H125.47a1.45,1.45,0,0,0-1.45,1.45v107.3a1.45,1.45,0,0,0,1.45,1.45h29.44a1.44,1.44,0,0,0,1.44-1.42V225.81a1.43,1.43,0,0,1,1.42-1.42H196c20.15,0,37.2-15.76,37.8-35.9A36.86,36.86,0,0,0,197,150.49Zm4.54,36.93a8.9,8.9,0,0,1-8.9,8.9H157.76a1.41,1.41,0,0,1-1.41-1.41V179.78a1.41,1.41,0,0,1,1.41-1.41h34.69a9,9,0,0,1,9.05,9Z"/><path class="cls-1" d="M107.81,136.65a2.22,2.22,0,0,0,2.22-2.22V111a2.22,2.22,0,0,0-2.22-2.22H34.1a1.67,1.67,0,0,1-1.67-1.67V96.44a1.67,1.67,0,0,1,1.67-1.67H83.4a2.27,2.27,0,0,0,2.27-2.27V71.22a2.46,2.46,0,0,0-2.45-2.46H34.1a1.67,1.67,0,0,1-1.67-1.67V56a1.67,1.67,0,0,1,1.67-1.67h73.71A2.21,2.21,0,0,0,110,52.11V28.66a2.22,2.22,0,0,0-2.22-2.22H2.43A2.22,2.22,0,0,0,.21,28.66V134.43a2.22,2.22,0,0,0,2.22,2.22Z"/><path class="cls-2" d="M38.12,152.13V177a1.44,1.44,0,0,0,1.45,1.44h19a1.38,1.38,0,0,1,1,2.37L30.66,209.79a1.44,1.44,0,0,1-2.46-1V190.44a1.65,1.65,0,0,0-1.64-1.64H1.64A1.64,1.64,0,0,0,0,190.44v68.85a1.63,1.63,0,0,0,1.64,1.63H70.48a1.63,1.63,0,0,0,1.64-1.63V234.48a1.63,1.63,0,0,0-1.64-1.64H51.65a1.44,1.44,0,0,1-1-2.46l29-29a1.44,1.44,0,0,1,2.46,1V221a1.64,1.64,0,0,0,1.64,1.64H108.6a1.64,1.64,0,0,0,1.64-1.64V152.13a1.63,1.63,0,0,0-1.64-1.64H39.76A1.64,1.64,0,0,0,38.12,152.13Z"/><path class="cls-1" d="M159.21,253.59c0-.31.14-.45.47-.45h6.58c.33,0,.47.14.47.45v6.12c0,.31-.14.45-.47.45h-6.58c-.33,0-.47-.14-.47-.45Z"/><path class="cls-1" d="M184,260.16c-.33,0-.47-.14-.47-.45V247.37c0-2.08-.95-3.15-2.79-3.15s-2.84,1.2-2.84,3.15v12.34c0,.31-.15.45-.48.45h-7c-.33,0-.47-.14-.47-.45V239c0-.32.14-.45.47-.45h7c.33,0,.48.13.48.45v1.55h0c1.23-1.69,3.22-2.53,5.92-2.53,5.07,0,7.62,3.11,7.62,8.08v13.62c0,.31-.14.45-.47.45Z"/><path class="cls-1" d="M195.15,254.34a14,14,0,0,1-.76-5,15.33,15.33,0,0,1,.72-5c1.46-4,5.15-6.35,10.31-6.35,5.45,0,9.09,2.22,10.42,6.26a21.37,21.37,0,0,1,.76,6.74c0,.31-.19.45-.53.45H202.39c-.18,0-.28.09-.28.26a5.83,5.83,0,0,0,.19.89c.52,1.55,2,2.35,4.45,2.35a8.22,8.22,0,0,0,5.16-1.73.46.46,0,0,1,.71,0l3.36,3.24c.28.22.28.45,0,.67a14.43,14.43,0,0,1-10,3.55C200.36,260.69,196.52,258.38,195.15,254.34Zm13.49-7.41c.19,0,.29-.09.29-.27a3.4,3.4,0,0,0-.19-1.33c-.43-1.29-1.52-2-3.22-2s-2.79.66-3.22,2a4.79,4.79,0,0,0-.19,1.33.25.25,0,0,0,.28.27Z"/><path class="cls-1" d="M229.37,260.42c-6.06,0-8.38-2.31-8.38-8.16v-8.13c0-.17-.09-.26-.28-.26h-1.33c-.33,0-.47-.14-.47-.45V239c0-.32.14-.45.47-.45h1.33c.19,0,.28-.09.28-.27v-5.63c0-.31.15-.45.48-.45h6.91c.33,0,.47.14.47.45v5.9H232c.33,0,.48.13.48.45v4.43c0,.31-.15.45-.48.45h-3.17v8.07c0,1.74.57,2.27,2.13,2.27h1c.33,0,.48.13.48.44V260c0,.31-.15.44-.48.44Z"/><path class="cls-1" d="M233.82,64.45a36.87,36.87,0,0,0-36.86-38H125.47A1.45,1.45,0,0,0,124,27.9V135.19a1.45,1.45,0,0,0,1.45,1.46h29.44a1.44,1.44,0,0,0,1.44-1.42V101.77a1.42,1.42,0,0,1,1.42-1.42h9.28a2.67,2.67,0,0,1,2.14,1.09l24.57,33.68a3.17,3.17,0,0,0,2.56,1.3h35.5a1,1,0,0,0,.79-1.55L206.8,99.49a.49.49,0,0,1,.26-.77C222,94.2,233.33,80.77,233.82,64.45Zm-77.47-8.71a1.41,1.41,0,0,1,1.41-1.41h34.69a9,9,0,0,1,9.05,9.05h0a8.91,8.91,0,0,1-8.9,8.9H157.76a1.41,1.41,0,0,1-1.41-1.41Z"/></g></g></svg>