<?xml version="1.0" encoding="utf-8"?>
<!-- Generator: Adobe Illustrator 28.1.0, SVG Export Plug-In . SVG Version: 6.00 Build 0)  -->
<svg version="1.1" id="Layer_1" xmlns="http://www.w3.org/2000/svg" xmlns:xlink="http://www.w3.org/1999/xlink" x="0px" y="0px"
	 viewBox="0 0 700 200" style="enable-background:new 0 0 700 200;" xml:space="preserve">
<style type="text/css">
	.st0{fill:#F49B11;}
	.st1{fill:#123750;}
	.st2{fill:#FFFFFF;}
	.st3{fill:#231F20;}
</style>
<g>
	<g>
		<g>
			<g>
				<g>
					<path class="st0" d="M61,20.6v22.5c0,0.4,0.3,0.7,0.7,0.7h20c0.4,0,0.6,0.4,0.3,0.7L53,73.7c-0.3,0.1-0.7,0-0.7-0.3v-19
						c0-0.4-0.3-0.7-0.7-0.7H28.1c-0.4,0-0.7,0.3-0.7,0.7v62.1c0,0.4,0.3,0.7,0.7,0.7h62.1c0.4,0,0.7-0.3,0.7-0.7V94.1
						c0-0.4-0.3-0.7-0.7-0.7h-20c-0.4,0-0.6-0.4-0.3-0.7l29.2-29.2c0.3-0.3,0.7-0.1,0.7,0.3v19.2c0,0.4,0.3,0.7,0.7,0.7h23.3
						c0.4,0,0.7-0.3,0.7-0.7V20.6c0-0.4-0.3-0.7-0.7-0.7h-62C61.5,19.8,61,20.2,61,20.6z"/>
				</g>
			</g>
			<g>
				<path class="st2" d="M168.9,91.3V80.1c0-0.6,0.5-1.2,1.2-1.2H226c0.6,0,1.2-0.5,1.2-1.2V57.3c0-0.6-0.5-1.2-1.2-1.2h-55.9
					c-0.6,0-1.2-0.5-1.2-1.2V45c0-0.6,0.5-1.2,1.2-1.2h61c0.6,0,1.2-0.5,1.2-1.2v-22c0-0.6-0.5-1.2-1.2-1.2h-89.8
					c-0.6,0-1.2,0.5-1.2,1.2v94.9c0,0.6,0.5,1.2,1.2,1.2h92.3c0.6,0,1.2-0.5,1.2-1.2v-22c0-0.6-0.5-1.2-1.2-1.2h-63.5
					C169.4,92.5,168.9,91.9,168.9,91.3z"/>
				<path class="st2" d="M348.3,116.8c1,0,1.5-1.1,0.9-1.8l-25.3-33.4c0.7-0.3,1.5-0.4,2.1-0.7c5.8-2.9,10.3-6.8,13.7-11.9
					c3.3-5,5-10.9,5-17.4c0-6.8-1.5-12.7-4.4-17.4c-2.9-4.8-7.4-8.4-13.3-10.8c-6-2.5-13.6-3.7-22.9-3.7h-55c-0.6,0-1.2,0.5-1.2,1.2
					v94.9c0,0.6,0.5,1.2,1.2,1.2H275c0.6,0,1.2-0.5,1.2-1.2V86.2c0-0.6,0.5-1.2,1.2-1.2h14.8c0.4,0,0.7,0.2,0.9,0.5l23.2,30.8
					c0.2,0.3,0.6,0.5,0.9,0.5H348.3z M276.1,44.3c0-0.6,0.5-1.2,1.2-1.2h24.8c2.3,0,4.4,0.4,6.4,1.1c1.9,0.7,3.5,1.9,4.7,3.4
					c1.2,1.5,1.7,3.5,1.7,6c0,2.4-0.6,4.4-1.7,6c-1.2,1.6-2.7,2.7-4.5,3.5c-1.9,0.7-3.9,1.1-6.1,1.1h-25.2c-0.6,0-1.2-0.5-1.2-1.2
					V44.3z"/>
				<path class="st2" d="M362.4,115.6V20.7c0-0.6,0.5-1.2,1.2-1.2h59.8c7.1,0,13.5,1.4,19.1,4.3s10,6.8,13.3,11.8
					c3.3,5,4.9,10.7,4.9,17.2c0,7-1.8,13.3-5.3,18.8c-3.5,5.5-8.3,9.8-14.4,12.9s-12.9,4.7-20.5,4.7h-27.1c-0.6,0-1.2,0.5-1.2,1.2
					v25.2c0,0.6-0.5,1.2-1.2,1.2h-27.7C362.9,116.8,362.4,116.2,362.4,115.6z M391.8,62.5c0,0.6,0.5,1.2,1.2,1.2h20.9
					c2.9,0,5.4-0.4,7.7-1.2c2.3-0.8,4.1-2,5.5-3.5c1.4-1.6,2.1-3.4,2.1-5.6c0-1.9-0.7-3.5-2.1-4.7s-3.2-2.1-5.5-2.7
					c-2.3-0.6-4.8-0.9-7.7-0.9H393c-0.6,0-1.2,0.5-1.2,1.2V62.5z"/>
				<path class="st2" d="M539.5,74.8c-1.9-3.4-4.6-6-8.2-8c-3.5-2-7.8-3-12.9-3c-4.6,0-8.7,0.8-12.3,2.3c-3.5,1.5-6.4,3.5-8.6,6
					l-0.5-7.3h-17.1c-0.6,0-1.2,0.5-1.2,1.2v49.5c0,0.6,0.5,1.2,1.2,1.2h8.7h8.6c0.6,0,1.2-0.5,1.2-1.2V91c0-1.2,0.2-2.4,0.7-3.7
					c0.5-1.3,1.2-2.6,2.2-3.7c1-1.1,2.3-2.1,3.8-2.8c1.6-0.7,3.4-1.1,5.6-1.1c2.4,0,4.5,0.5,6.2,1.5c1.7,1,3.1,2.3,4.1,4
					c1,1.7,1.5,3.7,1.5,6v24.4c0,0.6,0.5,1.2,1.2,1.2h17.4c0.6,0,1.2-0.5,1.2-1.2V86.1C542.4,81.9,541.4,78.2,539.5,74.8z"/>
				<path class="st2" d="M617.1,90.7c0.1-4-0.6-7.7-2.3-11c-1.6-3.3-4-6.1-7-8.5c-3-2.4-6.5-4.2-10.6-5.5c-4-1.3-8.4-1.9-13.2-1.9
					c-4.5,0-8.8,0.6-12.9,1.9c-4.1,1.3-7.7,3.1-10.9,5.4c-3.2,2.3-5.7,5.2-7.5,8.5c-1.8,3.3-2.7,7.1-2.7,11.2
					c0,5.2,1.5,9.8,4.5,13.9c3,4.1,7.2,7.3,12.7,9.6c5.5,2.3,12,3.5,19.5,3.5c3.6,0,6.9-0.2,10.2-0.7c3.2-0.5,6.3-1.3,9.4-2.3
					c2.6-0.9,5.1-2,7.5-3.4c0.6-0.3,0.8-1.2,0.4-1.7l-7.6-10.7c-1,0.5-2.9,1.1-5.6,1.9c-2.7,0.8-6.4,1.3-11,1.3
					c-4.6,0-8.5-0.6-11.8-1.8c-3.3-1.2-5.8-2.8-7.6-4.7c-0.1-0.2-0.2-0.3-0.3-0.5H617L617.1,90.7z M576.4,79.7
					c2.5-0.7,5.2-1.1,8-1.1c2.7,0,5.2,0.3,7.4,1c2.2,0.6,4,1.5,5.4,2.6c0.8,0.6,1.3,1.3,1.7,2h-29.3c0.2-0.3,0.4-0.7,0.6-1
					C571.8,81.6,573.9,80.5,576.4,79.7z"/>
				<path class="st2" d="M669.3,101.6c-0.2-0.5-0.7-0.8-1.3-0.6c-1.4,0.5-2.9,0.7-4.7,0.7c-2.4,0-4.5-0.5-6.2-1.5
					c-1.7-1-3.1-2.3-4.1-4c-0.8-1.4-1.2-3.1-1.3-4.9c0,0,0-0.1,0-0.1v-9c0-0.6,0.4-1,1-1H667c0.6,0,1-0.4,1-1V65.8c0-0.6-0.4-1-1-1
					h-14.3c-0.6,0-1-0.4-1-1v-14c0-0.6-0.4-1-1-1H633c-0.6,0-1,0.4-1,1v14.9h-0.1v0.1h-10.8c-0.6,0-1,0.4-1,1v14.5c0,0.6,0.4,1,1,1
					h9.8c0.6,0,1,0.4,1,1v13.1c0,0.3,0.1,0.6,0.1,0.9v1.4h0.2c0.3,3.2,1,6.2,2.6,8.9c1.9,3.4,4.6,6.1,8.2,8.1c3.6,2,7.9,3,12.9,3
					c4.6,0,8.7-0.8,12.3-2.3c1.6-0.7,3.2-1.5,4.5-2.5c0.4-0.3,0.5-0.7,0.4-1.2L669.3,101.6z"/>
			</g>
			<circle class="st2" cx="449.9" cy="107.3" r="10.9"/>
		</g>
		<g>
			<g>
				<path class="st2" d="M46.1,169.1v11h-7.2v-11.1l-12-19.9h7.6l8.3,13.8l8.3-13.8h7L46.1,169.1z"/>
				<path class="st2" d="M63.4,178.9c-2-1-3.5-2.5-4.7-4.4c-1.1-1.9-1.7-4-1.7-6.3c0-2.4,0.6-4.5,1.7-6.3c1.1-1.9,2.7-3.3,4.7-4.4
					c2-1,4.2-1.6,6.8-1.6c2.5,0,4.8,0.5,6.7,1.6c2,1,3.5,2.5,4.6,4.4c1.1,1.9,1.7,4,1.7,6.3c0,2.4-0.6,4.5-1.7,6.3
					c-1.1,1.9-2.7,3.3-4.6,4.4c-2,1-4.2,1.6-6.7,1.6C67.7,180.5,65.4,179.9,63.4,178.9z M74.5,173c1.1-1.2,1.7-2.8,1.7-4.8
					c0-2-0.6-3.6-1.7-4.8s-2.6-1.8-4.4-1.8s-3.2,0.6-4.4,1.8c-1.2,1.2-1.7,2.8-1.7,4.8c0,2,0.6,3.6,1.7,4.8c1.2,1.2,2.6,1.8,4.4,1.8
					S73.4,174.2,74.5,173z"/>
				<path class="st2" d="M112.7,156.3v23.8h-6.6v-2.8c-0.9,1-2,1.8-3.3,2.4c-1.3,0.5-2.6,0.8-4.1,0.8c-3.1,0-5.6-0.9-7.4-2.7
					c-1.8-1.8-2.7-4.5-2.7-8v-13.5h6.9v12.4c0,3.8,1.6,5.8,4.8,5.8c1.7,0,3-0.5,4-1.6c1-1.1,1.5-2.7,1.5-4.8v-11.8H112.7z"/>
				<path class="st2" d="M130,156.8c1.4-0.6,3-0.9,4.8-0.9v6.4c-0.8-0.1-1.3-0.1-1.5-0.1c-2,0-3.5,0.6-4.6,1.7
					c-1.1,1.1-1.7,2.8-1.7,5v11.2H120v-23.8h6.6v3.1C127.5,158.3,128.6,157.4,130,156.8z"/>
				<path class="st2" d="M180.8,166.8c1,1.3,1.5,2.9,1.5,4.8c0,2.7-1.1,4.8-3.2,6.3c-2.1,1.5-5.2,2.2-9.2,2.2h-16v-31H169
					c3.8,0,6.7,0.7,8.7,2.2c2,1.4,3,3.4,3,5.9c0,1.5-0.4,2.8-1.1,4c-0.7,1.2-1.7,2.1-3,2.8C178.4,164.6,179.8,165.5,180.8,166.8z
					 M161,154.5v7.3h7.1c1.8,0,3.1-0.3,4-0.9c0.9-0.6,1.4-1.5,1.4-2.7c0-1.2-0.5-2.1-1.4-2.7c-0.9-0.6-2.3-0.9-4-0.9H161z
					 M173.7,173.8c1-0.6,1.4-1.6,1.4-2.9c0-2.6-1.9-3.9-5.7-3.9H161v7.7h8.4C171.3,174.7,172.7,174.4,173.7,173.8z"/>
				<path class="st2" d="M212.2,156.3v23.8h-6.6v-2.8c-0.9,1-2,1.8-3.3,2.4c-1.3,0.5-2.6,0.8-4.1,0.8c-3.1,0-5.6-0.9-7.4-2.7
					c-1.8-1.8-2.7-4.5-2.7-8v-13.5h6.9v12.4c0,3.8,1.6,5.8,4.8,5.8c1.7,0,3-0.5,4-1.6c1-1.1,1.5-2.7,1.5-4.8v-11.8H212.2z"/>
				<path class="st2" d="M221.7,179.7c-1.9-0.5-3.4-1.1-4.5-1.8l2.3-5c1.1,0.7,2.3,1.2,3.9,1.7c1.5,0.4,3,0.6,4.4,0.6
					c2.9,0,4.4-0.7,4.4-2.2c0-0.7-0.4-1.2-1.2-1.5c-0.8-0.3-2-0.5-3.7-0.8c-1.9-0.3-3.6-0.6-4.8-1c-1.3-0.4-2.4-1.1-3.3-2
					c-0.9-1-1.4-2.4-1.4-4.2c0-1.5,0.4-2.8,1.3-4c0.9-1.2,2.1-2.1,3.8-2.7c1.7-0.6,3.6-1,5.9-1c1.7,0,3.4,0.2,5,0.6
					c1.7,0.4,3,0.9,4.1,1.5l-2.3,4.9c-2.1-1.2-4.4-1.8-6.9-1.8c-1.5,0-2.6,0.2-3.3,0.6c-0.7,0.4-1.1,0.9-1.1,1.6
					c0,0.7,0.4,1.3,1.2,1.5c0.8,0.3,2.1,0.6,3.8,0.8c1.9,0.3,3.5,0.7,4.8,1c1.2,0.4,2.3,1,3.2,2c0.9,1,1.4,2.3,1.4,4.1
					c0,1.5-0.4,2.8-1.3,3.9c-0.9,1.2-2.2,2-3.9,2.7c-1.7,0.6-3.7,1-6,1C225.5,180.5,223.6,180.2,221.7,179.7z"/>
				<path class="st2" d="M244.2,151.9c-0.8-0.7-1.2-1.7-1.2-2.7c0-1.1,0.4-2,1.2-2.7c0.8-0.7,1.8-1.1,3.1-1.1c1.3,0,2.3,0.4,3.1,1.1
					c0.8,0.7,1.2,1.6,1.2,2.7c0,1.2-0.4,2.1-1.2,2.9c-0.8,0.8-1.8,1.1-3.1,1.1C246,153,245,152.6,244.2,151.9z M243.9,156.3h6.9
					v23.8h-6.9V156.3z"/>
				<path class="st2" d="M279.7,158.6c1.8,1.8,2.7,4.4,2.7,7.9v13.6h-6.9v-12.6c0-1.9-0.4-3.3-1.2-4.2c-0.8-0.9-2-1.4-3.6-1.4
					c-1.7,0-3.1,0.5-4.2,1.6s-1.5,2.7-1.5,4.8v11.8h-6.9v-23.8h6.6v2.8c0.9-1,2.1-1.8,3.4-2.3c1.4-0.5,2.8-0.8,4.5-0.8
					C275.5,155.9,277.9,156.8,279.7,158.6z"/>
				<path class="st2" d="M313,170.2h-18c0.3,1.5,1.1,2.6,2.3,3.5c1.2,0.9,2.7,1.3,4.5,1.3c1.2,0,2.3-0.2,3.3-0.6
					c1-0.4,1.9-1,2.7-1.7l3.7,4c-2.2,2.6-5.5,3.9-9.8,3.9c-2.7,0-5.1-0.5-7.1-1.6c-2.1-1-3.7-2.5-4.8-4.4c-1.1-1.9-1.7-4-1.7-6.3
					c0-2.3,0.6-4.4,1.7-6.3c1.1-1.9,2.6-3.3,4.6-4.4c1.9-1,4.1-1.6,6.5-1.6c2.3,0,4.4,0.5,6.3,1.5c1.9,1,3.4,2.4,4.4,4.3
					c1.1,1.9,1.6,4.1,1.6,6.5C313.1,168.4,313.1,169,313,170.2z M296.9,162.5c-1.1,0.9-1.7,2.1-1.9,3.6h11.7
					c-0.2-1.5-0.9-2.7-1.9-3.6c-1.1-0.9-2.4-1.4-3.9-1.4C299.2,161.2,297.9,161.6,296.9,162.5z"/>
				<path class="st2" d="M320.8,179.7c-1.9-0.5-3.4-1.1-4.5-1.8l2.3-5c1.1,0.7,2.3,1.2,3.9,1.7c1.5,0.4,3,0.6,4.4,0.6
					c2.9,0,4.4-0.7,4.4-2.2c0-0.7-0.4-1.2-1.2-1.5c-0.8-0.3-2-0.5-3.7-0.8c-1.9-0.3-3.6-0.6-4.8-1c-1.3-0.4-2.4-1.1-3.3-2
					c-0.9-1-1.4-2.4-1.4-4.2c0-1.5,0.4-2.8,1.3-4c0.9-1.2,2.1-2.1,3.8-2.7c1.7-0.6,3.6-1,5.9-1c1.7,0,3.4,0.2,5,0.6
					c1.7,0.4,3,0.9,4.1,1.5l-2.3,4.9c-2.1-1.2-4.4-1.8-6.9-1.8c-1.5,0-2.6,0.2-3.3,0.6c-0.7,0.4-1.1,0.9-1.1,1.6
					c0,0.7,0.4,1.3,1.2,1.5c0.8,0.3,2.1,0.6,3.8,0.8c1.9,0.3,3.5,0.7,4.8,1c1.2,0.4,2.3,1,3.2,2c0.9,1,1.4,2.3,1.4,4.1
					c0,1.5-0.4,2.8-1.3,3.9c-0.9,1.2-2.2,2-3.9,2.7c-1.7,0.6-3.7,1-6,1C324.7,180.5,322.7,180.2,320.8,179.7z"/>
				<path class="st2" d="M345.2,179.7c-1.9-0.5-3.4-1.1-4.5-1.8l2.3-5c1.1,0.7,2.3,1.2,3.9,1.7c1.5,0.4,3,0.6,4.4,0.6
					c2.9,0,4.4-0.7,4.4-2.2c0-0.7-0.4-1.2-1.2-1.5c-0.8-0.3-2-0.5-3.7-0.8c-1.9-0.3-3.6-0.6-4.8-1c-1.3-0.4-2.4-1.1-3.3-2
					c-0.9-1-1.4-2.4-1.4-4.2c0-1.5,0.4-2.8,1.3-4c0.9-1.2,2.1-2.1,3.8-2.7c1.7-0.6,3.6-1,5.9-1c1.7,0,3.4,0.2,5,0.6
					c1.7,0.4,3,0.9,4.1,1.5l-2.3,4.9c-2.1-1.2-4.4-1.8-6.9-1.8c-1.5,0-2.6,0.2-3.3,0.6c-0.7,0.4-1.1,0.9-1.1,1.6
					c0,0.7,0.4,1.3,1.2,1.5c0.8,0.3,2.1,0.6,3.8,0.8c1.9,0.3,3.5,0.7,4.8,1c1.2,0.4,2.3,1,3.2,2c0.9,1,1.4,2.3,1.4,4.1
					c0,1.5-0.4,2.8-1.3,3.9c-0.9,1.2-2.2,2-3.9,2.7c-1.7,0.6-3.7,1-6,1C349.1,180.5,347.1,180.2,345.2,179.7z"/>
				<path class="st2" d="M367,179.2c-0.8-0.8-1.2-1.9-1.2-3.1c0-1.3,0.4-2.3,1.2-3.1c0.8-0.8,1.8-1.2,3.1-1.2c1.2,0,2.2,0.4,3.1,1.2
					c0.8,0.8,1.2,1.8,1.2,3.1c0,1.2-0.4,2.3-1.2,3.1c-0.8,0.8-1.8,1.2-3.1,1.2C368.8,180.5,367.8,180.1,367,179.2z"/>
				<path class="st2" d="M414.2,173.5h-14.4l-2.7,6.6h-7.3l13.8-31h7.1l13.9,31H417L414.2,173.5z M412,168l-4.9-11.9l-4.9,11.9H412z
					"/>
				<path class="st2" d="M451.7,156.3v23.8h-6.6v-2.8c-0.9,1-2,1.8-3.3,2.4c-1.3,0.5-2.6,0.8-4.1,0.8c-3.1,0-5.6-0.9-7.4-2.7
					c-1.8-1.8-2.7-4.5-2.7-8v-13.5h6.9v12.4c0,3.8,1.6,5.8,4.8,5.8c1.7,0,3-0.5,4-1.6c1-1.1,1.5-2.7,1.5-4.8v-11.8H451.7z"/>
				<path class="st2" d="M474.3,179c-0.7,0.5-1.5,0.9-2.5,1.1c-1,0.3-2,0.4-3.1,0.4c-2.8,0-5-0.7-6.6-2.2c-1.5-1.4-2.3-3.6-2.3-6.4
					v-9.8h-3.7v-5.3h3.7V151h6.9v5.8h5.9v5.3h-5.9v9.7c0,1,0.3,1.8,0.8,2.3c0.5,0.5,1.2,0.8,2.2,0.8c1.1,0,2-0.3,2.8-0.9L474.3,179z
					"/>
				<path class="st2" d="M482.9,178.9c-2-1-3.5-2.5-4.7-4.4c-1.1-1.9-1.7-4-1.7-6.3c0-2.4,0.6-4.5,1.7-6.3c1.1-1.9,2.7-3.3,4.7-4.4
					c2-1,4.2-1.6,6.8-1.6c2.5,0,4.8,0.5,6.7,1.6c2,1,3.5,2.5,4.6,4.4c1.1,1.9,1.7,4,1.7,6.3c0,2.4-0.6,4.5-1.7,6.3
					c-1.1,1.9-2.7,3.3-4.6,4.4c-2,1-4.2,1.6-6.7,1.6C487.2,180.5,484.9,179.9,482.9,178.9z M494.1,173c1.1-1.2,1.7-2.8,1.7-4.8
					c0-2-0.6-3.6-1.7-4.8s-2.6-1.8-4.4-1.8c-1.8,0-3.2,0.6-4.4,1.8c-1.2,1.2-1.7,2.8-1.7,4.8c0,2,0.6,3.6,1.7,4.8
					c1.2,1.2,2.6,1.8,4.4,1.8C491.5,174.8,492.9,174.2,494.1,173z"/>
				<path class="st2" d="M545.9,158.6c1.8,1.8,2.6,4.4,2.6,7.9v13.6h-6.9v-12.6c0-1.9-0.4-3.3-1.2-4.2c-0.8-0.9-1.9-1.4-3.3-1.4
					c-1.6,0-2.9,0.5-3.9,1.6c-0.9,1-1.4,2.6-1.4,4.7v12h-6.9v-12.6c0-3.7-1.5-5.6-4.5-5.6c-1.6,0-2.9,0.5-3.8,1.6
					c-0.9,1-1.4,2.6-1.4,4.7v12h-6.9v-23.8h6.6v2.7c0.9-1,2-1.8,3.3-2.3c1.3-0.5,2.7-0.8,4.2-0.8c1.7,0,3.2,0.3,4.6,1
					c1.4,0.7,2.4,1.6,3.3,2.9c1-1.2,2.2-2.2,3.7-2.9c1.5-0.7,3.1-1,4.9-1C541.7,155.9,544.1,156.8,545.9,158.6z"/>
				<path class="st2" d="M573.7,158.6c2,1.8,3,4.4,3,7.9v13.6h-6.5v-3c-1.3,2.2-3.7,3.3-7.3,3.3c-1.8,0-3.4-0.3-4.8-0.9
					c-1.3-0.6-2.4-1.5-3.1-2.6c-0.7-1.1-1.1-2.3-1.1-3.7c0-2.2,0.8-4,2.5-5.2c1.7-1.3,4.2-1.9,7.7-1.9h5.5c0-1.5-0.5-2.7-1.4-3.5
					c-0.9-0.8-2.3-1.2-4.1-1.2c-1.3,0-2.5,0.2-3.7,0.6c-1.2,0.4-2.3,0.9-3.1,1.6l-2.5-4.8c1.3-0.9,2.9-1.6,4.7-2.1
					c1.8-0.5,3.7-0.8,5.6-0.8C568.9,155.9,571.7,156.8,573.7,158.6z M567.8,175c0.9-0.5,1.6-1.4,1.9-2.4v-2.4H565
					c-2.8,0-4.3,0.9-4.3,2.8c0,0.9,0.3,1.6,1,2.1c0.7,0.5,1.6,0.8,2.9,0.8C565.8,175.8,566.9,175.6,567.8,175z"/>
				<path class="st2" d="M599.1,179c-0.7,0.5-1.5,0.9-2.5,1.1c-1,0.3-2,0.4-3.1,0.4c-2.8,0-5-0.7-6.6-2.2c-1.5-1.4-2.3-3.6-2.3-6.4
					v-9.8h-3.7v-5.3h3.7V151h6.9v5.8h5.9v5.3h-5.9v9.7c0,1,0.3,1.8,0.8,2.3c0.5,0.5,1.2,0.8,2.2,0.8c1.1,0,2-0.3,2.8-0.9L599.1,179z
					"/>
				<path class="st2" d="M626.4,170.2h-18c0.3,1.5,1.1,2.6,2.3,3.5c1.2,0.9,2.7,1.3,4.5,1.3c1.2,0,2.3-0.2,3.3-0.6
					c1-0.4,1.9-1,2.7-1.7l3.7,4c-2.2,2.6-5.5,3.9-9.8,3.9c-2.7,0-5.1-0.5-7.1-1.6c-2.1-1-3.7-2.5-4.8-4.4c-1.1-1.9-1.7-4-1.7-6.3
					c0-2.3,0.6-4.4,1.7-6.3c1.1-1.9,2.6-3.3,4.6-4.4c1.9-1,4.1-1.6,6.5-1.6c2.3,0,4.4,0.5,6.3,1.5c1.9,1,3.4,2.4,4.4,4.3
					c1.1,1.9,1.6,4.1,1.6,6.5C626.5,168.4,626.4,169,626.4,170.2z M610.2,162.5c-1.1,0.9-1.7,2.1-1.9,3.6H620
					c-0.2-1.5-0.9-2.7-1.9-3.6c-1.1-0.9-2.4-1.4-3.9-1.4C612.6,161.2,611.3,161.6,610.2,162.5z"/>
				<path class="st2" d="M656.2,147.3v32.8h-6.6v-2.7c-1.7,2.1-4.2,3.1-7.4,3.1c-2.2,0-4.3-0.5-6.1-1.5c-1.8-1-3.2-2.4-4.3-4.3
					c-1-1.9-1.5-4-1.5-6.5c0-2.4,0.5-4.6,1.5-6.5c1-1.9,2.5-3.3,4.3-4.3c1.8-1,3.8-1.5,6.1-1.5c3,0,5.4,1,7.1,2.9v-11.6H656.2z
					 M647.7,173c1.2-1.2,1.7-2.8,1.7-4.8c0-2-0.6-3.6-1.7-4.8c-1.2-1.2-2.6-1.8-4.3-1.8c-1.8,0-3.2,0.6-4.4,1.8
					c-1.2,1.2-1.7,2.8-1.7,4.8c0,2,0.6,3.6,1.7,4.8c1.2,1.2,2.6,1.8,4.4,1.8C645.1,174.8,646.6,174.2,647.7,173z"/>
				<path class="st2" d="M663.1,179.2c-0.8-0.8-1.2-1.9-1.2-3.1c0-1.3,0.4-2.3,1.2-3.1c0.8-0.8,1.8-1.2,3.1-1.2
					c1.2,0,2.2,0.4,3.1,1.2c0.8,0.8,1.2,1.8,1.2,3.1c0,1.2-0.4,2.3-1.2,3.1c-0.8,0.8-1.8,1.2-3.1,1.2
					C664.9,180.5,663.9,180.1,663.1,179.2z"/>
			</g>
		</g>
	</g>
	<path class="st2" d="M669.2,137.3H28.1c-0.5,0-0.9-0.4-0.9-0.9v-3.9c0-0.5,0.4-0.9,0.9-0.9h641.1c0.5,0,0.9,0.4,0.9,0.9v3.9
		C670.1,136.9,669.7,137.3,669.2,137.3z"/>
</g>
</svg>
