<svg xmlns="http://www.w3.org/2000/svg" viewBox="0 0 286.89 80.64"><defs><style>.cls-1{fill:#fff;}.cls-2{fill:#f49b11;}</style></defs><g id="Layer_2" data-name="Layer 2"><g id="Layer_1-2" data-name="Layer 1"><path class="cls-1" d="M.76,14.49c-.14,0-.21-.06-.21-.21V.46C.55.31.62.25.76.25h5.7C9.83.25,11.74,2.14,11.74,5a4.52,4.52,0,0,1-1.39,3.44A5.41,5.41,0,0,1,6.46,9.74H4.37c-.09,0-.13,0-.13.12v4.42c0,.15-.06.21-.21.21ZM6.25,6.62A1.58,1.58,0,0,0,8.05,5c0-1-.65-1.61-1.8-1.61H4.37c-.09,0-.13,0-.13.13v3c0,.09,0,.13.13.13Z"/><path class="cls-1" d="M13,7.37a14.15,14.15,0,0,1,.42-3.87C14.19,1.24,16.2,0,18.8,0s4.61,1.24,5.34,3.5a13.6,13.6,0,0,1,.42,3.87,13.55,13.55,0,0,1-.42,3.87c-.73,2.27-2.74,3.5-5.34,3.5s-4.61-1.23-5.34-3.5A14.1,14.1,0,0,1,13,7.37Zm7.79,0a10.77,10.77,0,0,0-.21-2.83A1.73,1.73,0,0,0,18.8,3.29,1.73,1.73,0,0,0,17,4.54a10.77,10.77,0,0,0-.21,2.83A10.77,10.77,0,0,0,17,10.2a1.72,1.72,0,0,0,1.82,1.25,1.72,1.72,0,0,0,1.82-1.25A10.77,10.77,0,0,0,20.83,7.37Z"/><path class="cls-1" d="M37.46,14.49a.24.24,0,0,1-.27-.21L35,6.32h0l-2.26,8a.26.26,0,0,1-.28.21H29.76a.26.26,0,0,1-.28-.21L25.61.46c0-.15,0-.21.17-.21h3.43c.15,0,.25.06.27.21l1.85,8.29h0L33.59.46a.24.24,0,0,1,.27-.21H36a.25.25,0,0,1,.27.21l2.28,8.29h0L40.39.46a.22.22,0,0,1,.25-.21h3.44c.15,0,.19.06.15.21L40.37,14.28a.26.26,0,0,1-.29.21Z"/><path class="cls-1" d="M45.53.46c0-.15.06-.21.21-.21h9.32c.14,0,.21.06.21.21v2.7c0,.15-.07.21-.21.21H49.34c-.08,0-.12,0-.12.13V5.65c0,.09,0,.13.12.13H54c.15,0,.21.06.21.21V8.63c0,.14-.06.21-.21.21H49.34a.11.11,0,0,0-.12.12v2.28c0,.09,0,.13.12.13h5.72c.14,0,.21.06.21.21v2.7c0,.15-.07.21-.21.21H45.74c-.15,0-.21-.06-.21-.21Z"/><path class="cls-1" d="M64.84,14.49a.31.31,0,0,1-.31-.21L62.37,9.42H61c-.08,0-.12,0-.12.13v4.73c0,.15-.07.21-.21.21H57.41c-.15,0-.21-.06-.21-.21V.46c0-.15.06-.21.21-.21h5.8A5.24,5.24,0,0,1,67,1.53a4.33,4.33,0,0,1,1.36,3.31,4.26,4.26,0,0,1-2.35,4l2.62,5.42a.16.16,0,0,1-.14.25ZM63,6.39a1.49,1.49,0,0,0,1.67-1.51A1.49,1.49,0,0,0,63,3.37H61c-.08,0-.12,0-.12.13V6.26c0,.09,0,.13.12.13Z"/><path class="cls-1" d="M70.38.46c0-.15.06-.21.21-.21H79.9c.15,0,.21.06.21.21v2.7c0,.15-.06.21-.21.21H74.19c-.09,0-.13,0-.13.13V5.65c0,.09,0,.13.13.13h4.69c.14,0,.21.06.21.21V8.63a.19.19,0,0,1-.21.21H74.19c-.09,0-.13,0-.13.12v2.28c0,.09,0,.13.13.13H79.9c.15,0,.21.06.21.21v2.7c0,.15-.06.21-.21.21H70.59c-.15,0-.21-.06-.21-.21Z"/><path class="cls-1" d="M82.05.46c0-.15.06-.21.21-.21h5.5c2.68,0,4.38,1.09,5.07,3.25a14,14,0,0,1,.42,3.87,13.85,13.85,0,0,1-.42,3.87c-.69,2.16-2.39,3.25-5.07,3.25h-5.5c-.15,0-.21-.06-.21-.21ZM85.73,11.1c0,.08,0,.12.13.12H87c1.32,0,2-.37,2.34-1.36a9.46,9.46,0,0,0,.21-2.49,9.46,9.46,0,0,0-.21-2.49c-.33-1-1-1.36-2.34-1.36H85.86c-.09,0-.13,0-.13.12Z"/><path class="cls-1" d="M100.25.46c0-.15.06-.21.21-.21h5.8c3.1,0,4.65,1.45,4.65,3.79a3.2,3.2,0,0,1-1.74,3.06v0a3.4,3.4,0,0,1,2,3.25c0,2.7-1.86,4.1-5,4.1h-5.74c-.15,0-.21-.06-.21-.21ZM105.55,6c1.13,0,1.69-.48,1.69-1.47S106.68,3,105.55,3h-1.49c-.08,0-.13,0-.13.12V5.84a.12.12,0,0,0,.13.13Zm-1.62,5.61a.12.12,0,0,0,.13.13h1.68c1.15,0,1.73-.55,1.73-1.62s-.58-1.59-1.73-1.59h-1.68a.12.12,0,0,0-.13.13Z"/><path class="cls-1" d="M116,14.49c-.14,0-.21-.06-.21-.21V9L111.48.48c-.06-.14,0-.23.17-.23h3.28a.35.35,0,0,1,.34.21l2.39,4.86h.06L120.07.46a.31.31,0,0,1,.33-.21h3.23c.16,0,.23.09.16.23L119.48,9v5.3c0,.15-.06.21-.21.21Z"/><path class="cls-1" d="M233.91,23.3h-37.2a.75.75,0,0,0-.76.75V79.88a.76.76,0,0,0,.76.76H212a.75.75,0,0,0,.75-.74V62.49a.74.74,0,0,1,.73-.74h19.91a19.54,19.54,0,0,0,19.67-18.68A19.19,19.19,0,0,0,233.91,23.3Zm2.36,19.21a4.64,4.64,0,0,1-4.63,4.64H213.51a.74.74,0,0,1-.73-.74V38.54a.73.73,0,0,1,.73-.73h18.05a4.7,4.7,0,0,1,4.71,4.7Z"/><path class="cls-1" d="M121.78,80.52a.76.76,0,0,0,.76-.75v-13a.76.76,0,0,0-.76-.76H82.62a.47.47,0,0,1-.47-.47V59.2a.47.47,0,0,1,.47-.47h26.46a.78.78,0,0,0,.78-.78V46.08a.87.87,0,0,0-.88-.88H82.62a.47.47,0,0,1-.47-.47V38.16a.47.47,0,0,1,.47-.47h39.16a.76.76,0,0,0,.76-.76v-13a.76.76,0,0,0-.76-.75H66.15a.76.76,0,0,0-.76.75V79.77a.76.76,0,0,0,.76.75Z"/><path class="cls-1" d="M261.75,35.94c0-.3.12-.43.4-.43h11.09c1.88,0,2.84-.85,2.84-2.51s-1.08-2.55-2.84-2.55H262.15c-.28,0-.4-.13-.4-.43v-6.3c0-.3.12-.42.4-.42h18.64c.28,0,.4.12.4.42V30c0,.3-.12.43-.4.43h-1.4v0c1.52,1.11,2.28,2.9,2.28,5.32,0,4.56-2.8,6.86-7.27,6.86H262.15c-.28,0-.4-.13-.4-.43Z"/><path class="cls-1" d="M267,46.24a12.55,12.55,0,0,1,4.47-.68,13.93,13.93,0,0,1,4.51.64c3.63,1.32,5.71,4.64,5.71,9.28,0,4.9-2,8.17-5.63,9.37a19.56,19.56,0,0,1-6.07.68c-.28,0-.4-.17-.4-.47V52.76c0-.17-.08-.26-.24-.26a5.2,5.2,0,0,0-.8.17c-1.39.47-2.11,1.83-2.11,4A7.45,7.45,0,0,0,268,61.31a.42.42,0,0,1,0,.64l-2.91,3c-.2.26-.4.26-.6,0a13,13,0,0,1-3.19-9C261.27,50.92,263.34,47.48,267,46.24Zm6.66,12.14a.22.22,0,0,0,.24.25,3,3,0,0,0,1.2-.17c1.16-.38,1.76-1.36,1.76-2.9a2.69,2.69,0,0,0-1.76-2.89,4.17,4.17,0,0,0-1.2-.17c-.16,0-.24.09-.24.26Z"/><path class="cls-1" d="M261.51,77.82c0-5.45,2.07-7.54,7.34-7.54h7.31c.16,0,.24-.08.24-.25v-1.2c0-.29.12-.42.4-.42h4c.28,0,.4.13.4.42V70c0,.17.08.25.24.25h5.07c.28,0,.39.13.39.43v6.21c0,.3-.11.43-.39.43h-5.31V80.2c0,.3-.12.43-.4.43h-4c-.28,0-.4-.13-.4-.43V77.35h-7.27c-1.56,0-2,.51-2,1.91v.94c0,.3-.12.43-.4.43h-4.79c-.28,0-.4-.13-.4-.43Z"/><path class="cls-1" d="M253.09,80.16c0,.33-.14.47-.49.47h-6.91c-.35,0-.5-.14-.5-.47V73.73c0-.32.15-.46.5-.46h6.91c.35,0,.49.14.49.46Z"/><path class="cls-2" d="M19.84,23.64V36.89a.45.45,0,0,0,.46.46H32.06a.24.24,0,0,1,.16.41L15.08,54.91a.24.24,0,0,1-.41-.17V43.57a.46.46,0,0,0-.46-.46H.46a.47.47,0,0,0-.46.46V80.18a.47.47,0,0,0,.46.46H37.07a.47.47,0,0,0,.46-.46V66.92a.47.47,0,0,0-.46-.46H25.21a.24.24,0,0,1-.17-.41L42.28,48.81a.24.24,0,0,1,.41.16V60.24a.47.47,0,0,0,.46.46H56.9a.46.46,0,0,0,.46-.46V23.64a.46.46,0,0,0-.46-.47H20.3A.46.46,0,0,0,19.84,23.64Z"/><path class="cls-1" d="M187.61,43a19.19,19.19,0,0,0-19.18-19.78H131.22a.75.75,0,0,0-.75.76V79.77a.75.75,0,0,0,.75.75h15.32a.75.75,0,0,0,.75-.73V62.37a.74.74,0,0,1,.74-.74h4.83a1.39,1.39,0,0,1,1.11.57l12.79,17.53a1.67,1.67,0,0,0,1.33.68h18.48a.51.51,0,0,0,.41-.81L173.55,61.19a.26.26,0,0,1,.13-.41A19.38,19.38,0,0,0,187.61,43Zm-40.32-4.53a.74.74,0,0,1,.74-.74h18.05a4.71,4.71,0,0,1,4.71,4.71h0A4.64,4.64,0,0,1,166.15,47H148a.74.74,0,0,1-.74-.74Z"/></g></g></svg>
