<?xml version="1.0" encoding="utf-8"?>
<!-- Generator: Adobe Illustrator 28.1.0, SVG Export Plug-In . SVG Version: 6.00 Build 0)  -->
<svg version="1.1" id="Layer_1" xmlns="http://www.w3.org/2000/svg" xmlns:xlink="http://www.w3.org/1999/xlink" x="0px" y="0px"
	 width="149.000000pt" height="32.000000pt" viewBox="0 0 700 150"  style="enable-background:new 0 0 700 150;" xml:space="preserve">
<style type="text/css">
	.st0{fill:#F49B11;}
	.st1{fill:#123750;}
	.st2{fill:#FFFFFF;}
	.st3{fill:#231F20;}
</style>
<g>
	<g>
		<g>
			<path class="st0" d="M62.3,26.8v22.5c0,0.4,0.3,0.7,0.7,0.7h20c0.4,0,0.6,0.4,0.3,0.7L54.3,79.9c-0.3,0.1-0.7,0-0.7-0.3v-19
				c0-0.4-0.3-0.7-0.7-0.7H29.4c-0.4,0-0.7,0.3-0.7,0.7v62.1c0,0.4,0.3,0.7,0.7,0.7h62.1c0.4,0,0.7-0.3,0.7-0.7v-22.5
				c0-0.4-0.3-0.7-0.7-0.7h-20c-0.4,0-0.6-0.4-0.3-0.7l29.2-29.2c0.3-0.3,0.7-0.1,0.7,0.3v19.2c0,0.4,0.3,0.7,0.7,0.7h23.3
				c0.4,0,0.7-0.3,0.7-0.7V26.8c0-0.4-0.3-0.7-0.7-0.7h-62C62.8,25.9,62.3,26.4,62.3,26.8z"/>
		</g>
	</g>
	<g>
		<path class="st2" d="M170.2,97.5V86.3c0-0.6,0.5-1.2,1.2-1.2h55.9c0.6,0,1.2-0.5,1.2-1.2V63.5c0-0.6-0.5-1.2-1.2-1.2h-55.9
			c-0.6,0-1.2-0.5-1.2-1.2V51.1c0-0.6,0.5-1.2,1.2-1.2h61c0.6,0,1.2-0.5,1.2-1.2v-22c0-0.6-0.5-1.2-1.2-1.2h-89.8
			c-0.6,0-1.2,0.5-1.2,1.2v94.9c0,0.6,0.5,1.2,1.2,1.2h92.3c0.6,0,1.2-0.5,1.2-1.2v-22c0-0.6-0.5-1.2-1.2-1.2h-63.5
			C170.7,98.6,170.2,98.1,170.2,97.5z"/>
		<path class="st2" d="M349.6,122.9c1,0,1.5-1.1,0.9-1.8l-25.3-33.4c0.7-0.3,1.5-0.4,2.1-0.7c5.8-2.9,10.3-6.8,13.7-11.9
			c3.3-5,5-10.9,5-17.4c0-6.8-1.5-12.7-4.4-17.4c-2.9-4.8-7.4-8.4-13.3-10.8c-6-2.5-13.6-3.7-22.9-3.7h-55c-0.6,0-1.2,0.5-1.2,1.2
			v94.9c0,0.6,0.5,1.2,1.2,1.2h25.8c0.6,0,1.2-0.5,1.2-1.2V92.4c0-0.6,0.5-1.2,1.2-1.2h14.8c0.4,0,0.7,0.2,0.9,0.5l23.2,30.8
			c0.2,0.3,0.6,0.5,0.9,0.5H349.6z M277.4,50.5c0-0.6,0.5-1.2,1.2-1.2h24.8c2.3,0,4.4,0.4,6.4,1.1c1.9,0.7,3.5,1.9,4.7,3.4
			c1.2,1.5,1.7,3.5,1.7,6c0,2.4-0.6,4.4-1.7,6c-1.2,1.6-2.7,2.7-4.5,3.5c-1.9,0.7-3.9,1.1-6.1,1.1h-25.2c-0.6,0-1.2-0.5-1.2-1.2
			V50.5z"/>
		<path class="st2" d="M363.7,121.8V26.8c0-0.6,0.5-1.2,1.2-1.2h59.8c7.1,0,13.5,1.4,19.1,4.3s10,6.8,13.3,11.8
			c3.3,5,4.9,10.7,4.9,17.2c0,7-1.8,13.3-5.3,18.8c-3.5,5.5-8.3,9.8-14.4,12.9s-12.9,4.7-20.5,4.7h-27.1c-0.6,0-1.2,0.5-1.2,1.2
			v25.2c0,0.6-0.5,1.2-1.2,1.2h-27.7C364.2,122.9,363.7,122.4,363.7,121.8z M393.1,68.7c0,0.6,0.5,1.2,1.2,1.2h20.9
			c2.9,0,5.4-0.4,7.7-1.2c2.3-0.8,4.1-2,5.5-3.5c1.4-1.6,2.1-3.4,2.1-5.6c0-1.9-0.7-3.5-2.1-4.7s-3.2-2.1-5.5-2.7
			c-2.3-0.6-4.8-0.9-7.7-0.9h-20.9c-0.6,0-1.2,0.5-1.2,1.2V68.7z"/>
		<path class="st2" d="M540.8,81c-1.9-3.4-4.6-6-8.2-8c-3.5-2-7.8-3-12.9-3c-4.6,0-8.7,0.8-12.3,2.3c-3.5,1.5-6.4,3.5-8.6,6
			l-0.5-7.3h-17.1c-0.6,0-1.2,0.5-1.2,1.2v49.5c0,0.6,0.5,1.2,1.2,1.2h8.7h8.6c0.6,0,1.2-0.5,1.2-1.2V97.2c0-1.2,0.2-2.4,0.7-3.7
			c0.5-1.3,1.2-2.6,2.2-3.7c1-1.1,2.3-2.1,3.8-2.8c1.6-0.7,3.4-1.1,5.6-1.1c2.4,0,4.5,0.5,6.2,1.5c1.7,1,3.1,2.3,4.1,4
			c1,1.7,1.5,3.7,1.5,6v24.4c0,0.6,0.5,1.2,1.2,1.2h17.4c0.6,0,1.2-0.5,1.2-1.2V92.2C543.7,88.1,542.7,84.3,540.8,81z"/>
		<path class="st2" d="M618.4,96.9c0.1-4-0.6-7.7-2.3-11c-1.6-3.3-4-6.1-7-8.5c-3-2.4-6.5-4.2-10.6-5.5c-4-1.3-8.4-1.9-13.2-1.9
			c-4.5,0-8.8,0.6-12.9,1.9c-4.1,1.3-7.7,3.1-10.9,5.4c-3.2,2.3-5.7,5.2-7.5,8.5c-1.8,3.3-2.7,7.1-2.7,11.2c0,5.2,1.5,9.8,4.5,13.9
			c3,4.1,7.2,7.3,12.7,9.6c5.5,2.3,12,3.5,19.5,3.5c3.6,0,6.9-0.2,10.2-0.7c3.2-0.5,6.3-1.3,9.4-2.3c2.6-0.9,5.1-2,7.5-3.4
			c0.6-0.3,0.8-1.2,0.4-1.7l-7.6-10.7c-1,0.5-2.9,1.1-5.6,1.9c-2.7,0.8-6.4,1.3-11,1.3c-4.6,0-8.5-0.6-11.8-1.8
			c-3.3-1.2-5.8-2.8-7.6-4.7c-0.1-0.2-0.2-0.3-0.3-0.5h46.7L618.4,96.9z M577.7,85.9c2.5-0.7,5.2-1.1,8-1.1c2.7,0,5.2,0.3,7.4,1
			c2.2,0.6,4,1.5,5.4,2.6c0.8,0.6,1.3,1.3,1.7,2h-29.3c0.2-0.3,0.4-0.7,0.6-1C573.1,87.8,575.2,86.6,577.7,85.9z"/>
		<path class="st2" d="M670.7,107.8c-0.2-0.5-0.7-0.8-1.3-0.6c-1.4,0.5-2.9,0.7-4.7,0.7c-2.4,0-4.5-0.5-6.2-1.5
			c-1.7-1-3.1-2.3-4.1-4c-0.8-1.4-1.2-3.1-1.3-4.9c0,0,0-0.1,0-0.1v-9c0-0.6,0.4-1,1-1h14.3c0.6,0,1-0.4,1-1V71.9c0-0.6-0.4-1-1-1
			h-14.3c-0.6,0-1-0.4-1-1v-14c0-0.6-0.4-1-1-1h-17.7c-0.6,0-1,0.4-1,1v14.9h-0.1v0.1h-10.8c-0.6,0-1,0.4-1,1v14.5c0,0.6,0.4,1,1,1
			h9.8c0.6,0,1,0.4,1,1v13.1c0,0.3,0.1,0.6,0.1,0.9v1.4h0.2c0.3,3.2,1,6.2,2.6,8.9c1.9,3.4,4.6,6.1,8.2,8.1c3.6,2,7.9,3,12.9,3
			c4.6,0,8.7-0.8,12.3-2.3c1.6-0.7,3.2-1.5,4.5-2.5c0.4-0.3,0.5-0.7,0.4-1.2L670.7,107.8z"/>
	</g>
	<circle class="st2" cx="451.2" cy="113.5" r="10.9"/>
</g>
</svg>
