<?xml version="1.0" encoding="utf-8"?>
<!-- Generator: Adobe Illustrator 28.1.0, SVG Export Plug-In . SVG Version: 6.00 Build 0)  -->
<svg version="1.1" id="Layer_1" xmlns="http://www.w3.org/2000/svg" xmlns:xlink="http://www.w3.org/1999/xlink" x="0px" y="0px"
	 width="40.000000pt" height="40.000000pt" viewBox="0 0 150 150"  style="enable-background:new 0 0 150 150;" xml:space="preserve">
<style type="text/css">
	.st0{fill:#F49B11;}
	.st1{fill:#123750;}
	.st2{fill:#FFFFFF;}
	.st3{fill:#231F20;}
</style>
<g>
	<g>
		<g>
			<path class="st0" d="M62.3,26.8v22.5c0,0.4,0.3,0.7,0.7,0.7h20c0.4,0,0.6,0.4,0.3,0.7L54.3,79.9c-0.3,0.1-0.7,0-0.7-0.3v-19
				c0-0.4-0.3-0.7-0.7-0.7H29.4c-0.4,0-0.7,0.3-0.7,0.7v62.1c0,0.4,0.3,0.7,0.7,0.7h62.1c0.4,0,0.7-0.3,0.7-0.7v-22.5
				c0-0.4-0.3-0.7-0.7-0.7h-20c-0.4,0-0.6-0.4-0.3-0.7l29.2-29.2c0.3-0.3,0.7-0.1,0.7,0.3v19.2c0,0.4,0.3,0.7,0.7,0.7h23.3
				c0.4,0,0.7-0.3,0.7-0.7V26.8c0-0.4-0.3-0.7-0.7-0.7h-62C62.8,25.9,62.3,26.4,62.3,26.8z"/>
		</g>
	</g>
</g>
</svg>
